<svg xmlns="http://www.w3.org/2000/svg" version="1.1"><path d="M 592,881 591,882 590,882 589,883 588,883 587,884 585,884 584,885 582,885 581,886 580,886 579,887 577,887 576,888 575,888 574,889 572,889 571,890 569,890 568,891 566,891 565,892 563,892 562,893 560,893 559,894 557,894 556,895 553,895 552,896 549,896 548,897 546,897 545,898 542,898 541,899 539,899 538,900 535,900 534,901 530,901 529,902 525,902 524,903 520,903 519,904 515,904 514,905 510,905 509,906 504,906 503,907 495,907 494,908 486,908 485,909 476,909 475,910 452,910 459,910 460,911 482,911 483,910 500,910 501,909 510,909 511,908 518,908 519,907 525,907 526,906 532,906 533,905 538,905 539,904 543,904 544,903 547,903 548,902 552,902 553,901 557,901 558,900 560,900 561,899 564,899 565,898 567,898 568,897 571,897 572,896 574,896 575,895 578,895 579,894 581,894 582,893 584,893 585,892 586,892 587,891 589,891 590,890 593,890 594,889 595,889 595,886 594,885 594,883 593,882 593,881 Z" fill="black" stroke="none" /><path d="M 270,880 271,881 272,881 273,882 274,882 276,884 277,884 278,885 279,885 281,887 282,887 283,888 284,888 285,889 286,889 287,890 288,890 290,892 291,892 292,893 293,893 294,894 295,894 296,895 297,895 298,896 299,896 300,897 301,897 302,898 303,898 304,899 305,899 307,901 309,901 310,902 311,902 312,903 313,903 314,904 315,904 316,905 317,905 318,906 320,906 321,907 322,907 323,908 324,908 325,909 326,909 327,910 328,910 329,911 331,911 332,912 334,912 335,913 336,913 337,914 338,914 339,915 341,915 342,916 343,916 344,917 346,917 347,918 349,918 350,919 352,919 353,920 354,920 355,921 357,921 358,922 360,922 361,923 364,923 365,924 367,924 368,925 370,925 371,926 373,926 374,927 376,927 377,928 380,928 381,929 384,929 385,930 388,930 389,931 391,931 392,932 395,932 396,933 400,933 401,934 405,934 406,935 410,935 411,936 415,936 416,937 420,937 421,938 426,938 427,939 434,939 435,940 442,940 443,941 450,941 451,942 462,942 463,943 483,943 484,944 504,944 505,943 525,943 526,942 537,942 538,941 546,941 547,940 553,940 554,939 562,939 563,938 567,938 568,937 573,937 574,936 578,936 579,935 583,935 584,934 589,934 590,933 593,933 594,932 597,932 598,931 601,931 602,930 604,930 605,929 608,929 609,928 612,928 613,927 616,927 617,926 619,926 620,925 622,925 623,924 624,924 622,922 621,922 618,919 617,919 604,906 604,905 602,903 602,902 601,901 601,900 600,899 600,898 599,897 599,896 598,895 598,894 597,893 596,894 594,894 593,895 592,895 591,896 588,896 587,897 586,897 585,898 583,898 582,899 580,899 579,900 577,900 576,901 573,901 572,902 569,902 568,903 566,903 565,904 562,904 561,905 558,905 557,906 554,906 553,907 549,907 548,908 545,908 544,909 540,909 539,910 534,910 533,911 528,911 527,912 522,912 521,913 512,913 511,914 502,914 501,915 486,915 485,916 459,916 458,915 442,915 441,914 432,914 431,913 422,913 421,912 415,912 414,911 409,911 408,910 404,910 403,909 399,909 398,908 394,908 393,907 388,907 387,906 384,906 383,905 380,905 379,904 376,904 375,903 373,903 372,902 368,902 367,901 365,901 364,900 361,900 360,899 357,899 356,898 354,898 353,897 350,897 349,896 346,896 345,895 343,895 342,894 339,894 338,893 335,893 334,892 332,892 331,891 327,891 326,890 324,890 323,889 320,889 319,888 316,888 315,887 311,887 310,886 298,886 297,885 289,885 288,884 284,884 283,883 279,883 278,882 275,882 274,881 272,881 271,880 Z" fill="black" stroke="none" /><path d="M 609,874 609,878 610,879 610,882 612,882 613,881 614,881 615,880 616,880 617,879 619,879 620,878 621,878 622,877 616,877 615,876 612,876 611,875 610,875 Z" fill="black" stroke="none" /><path d="M 637,780 633,784 633,785 628,790 628,791 618,801 618,802 617,803 616,803 616,804 612,808 611,808 611,809 609,811 608,811 597,822 596,822 591,827 590,827 586,831 585,831 581,835 580,835 577,838 576,838 574,840 573,840 570,843 569,843 567,845 566,845 564,847 563,847 562,848 561,848 558,851 557,851 556,852 555,852 554,853 553,853 551,855 550,855 548,857 547,857 546,858 545,858 544,859 543,859 542,860 541,860 540,861 539,861 537,863 535,863 534,864 533,864 531,866 530,866 529,867 528,867 527,868 526,868 525,869 523,869 522,870 521,870 520,871 519,871 518,872 517,872 516,873 514,873 513,874 511,874 510,875 509,875 508,876 507,876 506,877 504,877 503,878 502,878 501,879 499,879 498,880 496,880 495,881 493,881 492,882 490,882 489,883 487,883 486,884 484,884 483,885 480,885 479,886 477,886 476,887 473,887 472,888 469,888 468,889 465,889 464,890 461,890 460,891 456,891 455,892 450,892 449,893 445,893 444,894 440,894 444,894 445,893 452,893 453,892 458,892 459,891 464,891 465,890 471,890 472,889 475,889 476,888 480,888 481,887 484,887 485,886 488,886 489,885 492,885 493,884 496,884 497,883 499,883 500,882 503,882 504,881 506,881 507,880 509,880 510,879 512,879 513,878 515,878 516,877 518,877 519,876 521,876 522,875 523,875 524,874 526,874 527,873 529,873 530,872 531,872 532,871 533,871 534,870 536,870 537,869 538,869 539,868 541,868 542,867 543,867 544,866 545,866 546,865 547,865 548,864 549,864 550,863 551,863 552,862 553,862 555,860 556,860 557,859 558,859 560,857 561,857 562,856 563,856 565,854 566,854 568,852 569,852 571,850 572,850 575,847 576,847 578,845 579,845 583,841 584,841 588,837 589,837 597,829 598,829 610,817 610,816 615,811 615,810 620,805 620,804 623,801 623,800 626,797 626,796 628,794 628,793 630,791 630,790 632,788 632,787 633,786 633,785 635,783 635,782 Z" fill="black" stroke="none" /><path d="M 741,766 740,767 740,768 737,771 737,772 732,777 732,778 727,783 727,784 716,795 716,796 704,808 703,808 692,819 691,819 685,825 684,825 679,830 678,830 675,833 674,833 671,836 670,836 667,839 666,839 663,842 662,842 659,845 658,845 656,847 655,847 653,849 652,849 650,851 651,852 651,861 652,860 653,860 656,857 657,857 658,856 659,856 662,853 663,853 665,851 666,851 669,848 670,848 673,845 674,845 679,840 680,840 685,835 686,835 697,824 698,824 698,823 709,812 709,811 715,805 715,804 719,800 719,799 722,796 722,795 726,791 726,790 727,789 727,788 730,785 730,784 731,783 731,782 733,780 733,779 735,777 735,776 736,775 736,774 737,773 737,772 739,770 739,769 740,768 740,767 Z" fill="black" stroke="none" /><path d="M 97,673 97,674 Z" fill="black" stroke="none" /><path d="M 117,646 117,651 118,652 118,663 119,664 119,672 120,673 120,678 121,679 121,683 122,684 122,687 123,688 123,691 124,692 124,695 125,696 125,699 126,700 126,703 127,704 127,706 128,707 128,709 129,710 129,711 130,712 130,715 131,716 131,717 132,718 132,719 134,721 134,722 135,723 135,724 136,725 136,726 138,728 138,729 140,731 140,732 141,733 141,734 143,736 143,737 144,738 144,739 147,742 147,743 148,744 148,745 150,747 150,738 149,737 149,736 148,735 148,734 147,733 147,732 146,731 146,730 145,729 145,728 144,727 144,726 142,724 142,723 141,722 141,721 140,720 140,718 139,717 139,716 138,715 138,714 137,713 137,712 136,711 136,710 135,709 135,707 134,706 134,705 133,704 133,702 132,701 132,700 131,699 131,697 130,696 130,695 129,694 129,691 128,690 128,688 127,687 127,686 126,685 126,682 125,681 125,679 124,678 124,675 123,674 123,672 122,671 122,668 121,667 121,664 120,663 120,660 119,659 119,655 118,654 118,648 117,647 Z" fill="black" stroke="none" /><path d="M 94,636 94,639 95,640 95,644 96,645 96,649 97,650 97,655 98,656 98,659 99,660 99,663 100,664 100,666 101,667 101,670 102,671 102,673 103,674 103,677 104,678 104,680 105,681 105,683 106,684 106,686 107,687 107,689 108,690 108,692 109,693 109,695 110,696 110,697 111,698 111,700 112,701 112,702 113,703 113,705 114,706 114,707 115,708 115,710 116,711 116,712 117,713 117,714 118,715 118,716 119,717 119,719 120,720 120,721 122,723 122,724 123,725 123,726 124,727 124,728 125,729 125,730 126,731 126,732 127,733 127,734 128,735 128,736 130,738 130,740 132,742 132,743 134,745 134,746 135,747 135,748 136,749 136,750 139,753 139,754 140,755 140,756 142,758 142,759 144,761 144,762 147,765 147,766 149,768 149,769 150,769 150,765 149,764 149,763 147,761 147,760 146,759 146,758 144,756 144,755 143,754 143,753 142,752 142,751 140,749 140,748 139,747 139,746 138,745 138,744 137,743 137,742 136,741 136,740 135,739 135,738 134,737 134,736 133,735 133,734 132,733 132,731 131,730 131,729 130,728 130,727 129,726 129,724 128,723 128,722 127,721 127,719 126,718 126,717 125,716 125,715 124,714 124,713 123,712 123,711 121,709 121,708 120,707 120,706 119,705 119,704 118,703 118,701 117,700 117,699 116,698 116,697 115,696 115,695 114,694 114,693 113,692 113,690 112,689 112,688 111,687 111,686 110,685 110,684 109,683 109,681 108,680 108,679 107,678 107,676 106,675 106,673 105,672 105,671 104,670 104,668 103,667 103,665 102,664 102,662 101,661 101,659 100,658 100,656 99,655 99,653 98,652 98,650 97,649 97,647 96,646 96,643 95,642 95,639 94,638 Z" fill="black" stroke="none" /><path d="M 313,590 312,591 300,591 299,592 293,592 292,593 287,593 286,594 283,594 282,595 279,595 278,596 276,596 275,597 273,597 272,598 270,598 269,599 267,599 266,600 265,600 264,601 262,601 261,602 260,602 259,603 258,603 257,604 256,604 255,605 254,605 253,606 252,606 250,608 249,608 247,610 246,610 245,611 244,611 242,613 241,613 238,616 237,616 232,621 231,621 216,636 216,637 212,641 212,642 209,645 209,646 207,648 207,649 205,651 205,652 203,654 203,655 202,656 202,657 201,658 201,659 200,660 200,661 199,662 199,663 197,665 197,667 196,668 196,669 195,670 195,672 194,673 194,674 193,675 193,677 192,678 192,680 191,681 191,684 190,685 190,688 189,689 189,693 188,694 188,698 187,699 187,706 186,707 186,735 187,736 187,743 188,744 188,748 189,749 189,752 190,753 190,756 191,757 191,760 192,761 192,763 193,764 193,766 194,767 194,769 195,770 195,771 196,772 196,774 197,775 197,776 198,777 198,778 199,779 199,780 200,781 200,782 202,784 202,785 203,786 203,787 204,788 204,789 207,792 207,793 208,794 208,795 211,798 211,799 215,803 215,804 233,822 234,822 238,826 239,826 242,829 243,829 245,831 246,831 248,833 249,833 250,834 251,834 252,835 253,835 255,837 256,837 257,838 258,838 259,839 260,839 261,840 262,840 263,841 265,841 266,842 267,842 268,843 269,843 270,844 272,844 273,845 275,845 276,846 279,846 280,847 283,847 284,848 287,848 288,849 292,849 293,850 299,850 300,851 335,851 336,850 341,850 342,849 346,849 347,848 350,848 351,847 354,847 355,846 358,846 359,845 360,845 361,844 363,844 364,843 366,843 367,842 368,842 369,841 370,841 371,840 373,840 374,839 375,839 376,838 377,838 378,837 379,837 381,835 383,835 385,833 386,833 388,831 389,831 391,829 392,829 393,828 394,828 397,825 398,825 402,821 403,821 409,815 410,815 412,813 412,812 418,806 418,805 422,801 422,800 424,798 424,797 426,795 426,794 427,793 427,792 429,790 429,789 431,787 431,786 432,785 432,784 433,783 433,782 434,781 434,780 435,779 435,778 436,777 436,776 437,775 437,774 438,773 438,771 439,770 439,768 440,767 440,766 441,765 441,763 442,762 442,760 443,759 443,757 444,756 444,752 445,751 445,747 446,746 446,741 447,740 447,732 448,731 448,711 447,710 447,702 446,701 446,696 445,695 445,691 444,690 444,686 443,685 443,683 442,682 442,679 441,678 441,676 440,675 440,674 439,673 439,671 438,670 438,668 437,667 437,666 436,665 436,664 435,663 435,662 434,661 434,660 433,659 433,658 432,657 432,656 431,655 431,654 429,652 429,651 428,650 428,649 426,647 426,646 424,644 424,643 421,640 421,639 416,634 416,633 408,625 407,625 402,620 401,620 397,616 396,616 394,614 393,614 391,612 390,612 388,610 387,610 386,609 385,609 384,608 383,608 381,606 380,606 379,605 378,605 377,604 375,604 374,603 373,603 372,602 371,602 370,601 368,601 367,600 366,600 365,599 363,599 362,598 360,598 359,597 358,597 357,596 354,596 353,595 351,595 350,594 347,594 346,593 341,593 340,592 335,592 334,591 322,591 321,590 Z" fill="black" stroke="none" /><path d="M 85,588 85,591 84,592 84,624 85,625 85,629 86,630 86,635 87,636 87,639 88,640 88,643 89,644 89,647 90,648 90,651 91,652 91,654 92,655 92,658 93,659 93,662 94,663 94,665 95,666 95,668 96,669 96,671 96,668 95,667 95,665 94,664 94,661 93,660 93,657 92,656 92,652 91,651 91,646 90,645 90,641 89,640 89,635 88,634 88,628 87,627 87,620 86,619 86,608 85,607 Z" fill="black" stroke="none" /><path d="M 640,587 640,597 641,598 641,619 640,620 640,633 639,634 639,642 638,643 638,651 637,652 637,656 636,657 636,662 635,663 635,666 634,667 634,671 633,672 633,676 632,677 632,679 631,680 631,683 630,684 630,686 629,687 629,689 628,690 628,693 627,694 627,696 626,697 626,699 625,700 625,702 624,703 624,705 623,706 623,707 622,708 622,710 621,711 621,713 620,714 620,715 619,716 619,717 618,718 618,720 617,721 617,722 616,723 616,724 615,725 615,726 614,727 614,729 612,731 612,732 611,733 611,735 610,736 610,737 609,738 609,739 607,741 607,742 606,743 606,744 605,745 605,746 604,747 604,748 602,750 602,751 601,752 601,753 600,754 600,755 598,757 598,758 596,760 596,761 594,763 594,764 592,766 592,767 589,770 589,771 587,773 587,774 584,777 584,778 581,781 581,782 577,786 577,787 572,792 572,793 546,819 545,819 539,825 538,825 534,829 533,829 529,833 528,833 525,836 524,836 522,838 521,838 518,841 517,841 516,842 515,842 513,844 512,844 510,846 509,846 507,848 506,848 505,849 504,849 502,851 501,851 500,852 499,852 498,853 497,853 495,855 494,855 493,856 492,856 491,857 490,857 489,858 488,858 487,859 486,859 485,860 484,860 483,861 482,861 481,862 480,862 479,863 478,863 477,864 476,864 475,865 473,865 472,866 471,866 470,867 469,867 468,868 467,868 466,869 464,869 463,870 461,870 460,871 459,871 458,872 456,872 455,873 454,873 453,874 450,874 449,875 447,875 446,876 444,876 443,877 441,877 440,878 438,878 437,879 435,879 434,880 430,880 429,881 426,881 425,882 422,882 421,883 418,883 417,884 413,884 412,885 406,885 405,886 401,886 400,887 393,887 392,888 384,888 383,889 362,889 361,890 357,890 356,889 347,889 350,889 351,890 359,890 360,891 370,891 371,892 391,892 392,893 396,893 397,892 418,892 419,891 428,891 429,890 437,890 438,889 443,889 444,888 449,888 450,887 454,887 455,886 458,886 459,885 463,885 464,884 467,884 468,883 471,883 472,882 475,882 476,881 478,881 479,880 481,880 482,879 485,879 486,878 488,878 489,877 491,877 492,876 494,876 495,875 496,875 497,874 499,874 500,873 502,873 503,872 505,872 506,871 507,871 508,870 509,870 510,869 512,869 513,868 515,868 516,867 517,867 518,866 519,866 520,865 521,865 522,864 523,864 524,863 525,863 526,862 527,862 528,861 529,861 530,860 531,860 532,859 533,859 534,858 535,858 536,857 537,857 538,856 539,856 540,855 541,855 542,854 543,854 545,852 546,852 547,851 548,851 550,849 551,849 552,848 553,848 555,846 556,846 557,845 558,845 560,843 561,843 563,841 564,841 566,839 567,839 570,836 571,836 573,834 574,834 577,831 578,831 581,828 582,828 586,824 587,824 593,818 594,818 603,809 604,809 604,808 605,807 606,807 615,798 615,797 624,788 624,787 629,782 629,781 633,777 633,776 637,772 637,771 640,768 640,767 642,765 642,764 644,762 644,761 647,758 647,757 648,756 648,755 649,754 649,753 650,752 650,750 651,749 651,747 652,746 652,744 653,743 653,742 654,741 654,738 655,737 655,734 656,733 656,731 657,730 657,726 658,725 658,722 659,721 659,716 660,715 660,710 661,709 661,701 662,700 662,663 661,662 661,654 660,653 660,648 659,647 659,642 658,641 658,637 657,636 657,633 656,632 656,629 655,628 655,626 654,625 654,622 653,621 653,619 652,618 652,616 651,615 651,613 650,612 650,610 649,609 649,607 648,606 648,604 647,603 647,602 646,601 646,600 645,599 645,597 644,596 644,595 643,594 643,593 642,592 642,591 641,590 641,588 Z" fill="black" stroke="none" /><path d="M 741,538 741,540 742,541 742,559 743,560 743,572 742,573 742,592 741,593 741,602 740,603 740,610 739,611 739,617 738,618 738,624 737,625 737,629 736,630 736,634 735,635 735,638 734,639 734,642 733,643 733,646 732,647 732,651 731,652 731,654 730,655 730,658 729,659 729,661 728,662 728,664 727,665 727,668 726,669 726,671 725,672 725,674 724,675 724,677 723,678 723,679 722,680 722,682 721,683 721,685 720,686 720,688 719,689 719,690 718,691 718,692 717,693 717,695 716,696 716,697 715,698 715,700 714,701 714,702 713,703 713,704 712,705 712,706 711,707 711,708 710,709 710,711 709,712 709,713 708,714 708,715 707,716 707,717 706,718 706,719 705,720 705,721 704,722 704,723 702,725 702,726 701,727 701,728 700,729 700,730 699,731 699,732 697,734 697,735 696,736 696,737 694,739 694,740 693,741 693,742 691,744 691,745 689,747 689,748 688,749 688,750 685,753 685,754 683,756 683,757 681,759 681,760 678,763 678,764 676,766 676,767 672,771 672,772 668,776 668,777 664,781 664,782 657,789 657,790 632,815 631,815 625,821 624,821 619,826 618,826 614,830 613,830 610,833 609,833 606,836 605,836 602,839 601,839 599,841 598,841 596,843 595,843 593,845 592,845 590,847 589,847 587,849 586,849 584,851 583,851 582,852 581,852 580,853 579,853 577,855 576,855 574,857 573,857 572,858 571,858 570,859 569,859 568,860 567,860 565,862 564,862 563,863 561,863 559,865 558,865 557,866 556,866 555,867 554,867 553,868 552,868 551,869 549,869 548,870 547,870 545,872 544,872 543,873 542,873 541,874 539,874 538,875 537,875 536,876 535,876 534,877 533,877 532,878 531,878 530,879 529,879 528,880 526,880 525,881 524,881 523,882 521,882 520,883 519,883 518,884 516,884 515,885 513,885 512,886 510,886 509,887 507,887 506,888 504,888 503,889 501,889 500,890 498,890 497,891 494,891 493,892 490,892 489,893 486,893 485,894 482,894 481,895 478,895 477,896 472,896 471,897 467,897 466,898 461,898 460,899 455,899 454,900 447,900 446,901 436,901 435,902 399,902 405,902 406,903 414,903 415,904 425,904 426,905 472,905 473,904 484,904 485,903 493,903 494,902 500,902 501,901 508,901 509,900 513,900 514,899 518,899 519,898 523,898 524,897 528,897 529,896 532,896 533,895 537,895 538,894 540,894 541,893 544,893 545,892 547,892 548,891 551,891 552,890 555,890 556,889 558,889 559,888 561,888 562,887 564,887 565,886 566,886 567,885 569,885 570,884 572,884 573,883 575,883 576,882 578,882 579,881 580,881 581,880 582,880 583,879 586,879 587,878 588,878 589,877 590,877 591,876 592,876 592,863 593,862 593,859 594,858 594,857 595,856 595,855 598,852 598,851 606,843 607,843 609,841 610,841 611,840 612,840 613,839 615,839 616,838 618,838 619,837 635,837 636,838 639,838 640,839 641,839 642,840 643,840 648,845 650,845 652,843 653,843 656,840 657,840 659,838 660,838 663,835 664,835 666,833 667,833 671,829 672,829 675,826 676,826 680,822 681,822 686,817 687,817 687,816 688,815 689,815 697,807 698,807 715,790 715,789 722,782 722,781 723,780 724,780 724,779 729,774 729,773 733,769 733,768 737,764 737,763 739,761 739,760 742,757 742,756 745,753 745,752 747,750 747,749 749,747 749,746 751,744 751,743 753,741 753,739 754,738 754,736 755,735 755,733 756,732 756,731 757,730 757,728 758,727 758,725 759,724 759,721 760,720 760,718 761,717 761,714 762,713 762,710 763,709 763,706 764,705 764,701 765,700 765,696 766,695 766,690 767,689 767,683 768,682 768,674 769,673 769,634 768,633 768,625 767,624 767,618 766,617 766,612 765,611 765,607 764,606 764,601 763,600 763,597 762,596 762,593 761,592 761,589 760,588 760,586 759,585 759,582 758,581 758,579 757,578 757,576 756,575 756,573 755,572 755,570 754,569 754,567 753,566 753,564 752,563 752,562 751,561 751,559 750,558 750,557 749,556 749,555 748,554 748,552 747,551 747,550 746,549 746,548 745,547 745,545 744,544 744,543 743,542 743,541 742,540 742,539 Z" fill="black" stroke="none" /><path d="M 150,533 148,535 148,536 147,537 147,538 145,540 145,541 144,542 144,543 142,545 142,546 141,547 141,548 140,549 140,550 139,551 139,552 138,553 138,554 137,555 137,556 136,557 136,558 135,559 135,560 134,561 134,563 133,564 133,565 132,566 132,567 131,568 131,570 130,571 130,573 129,574 129,576 128,577 128,578 127,579 127,581 126,582 126,584 125,585 125,589 124,590 124,592 123,593 123,596 122,597 122,600 121,601 121,605 120,606 120,611 119,612 119,624 120,625 120,634 121,635 121,641 122,642 122,647 123,648 123,652 124,653 124,657 125,658 125,662 126,663 126,666 127,667 127,670 128,671 128,673 129,674 129,677 130,678 130,681 131,682 131,684 132,685 132,686 133,687 133,689 134,690 134,692 135,693 135,695 136,696 136,698 137,699 137,700 138,701 138,702 139,703 139,705 140,706 140,707 141,708 141,710 142,711 142,712 143,713 143,714 144,715 144,716 145,717 145,718 146,719 146,720 147,721 147,722 148,723 148,724 149,725 149,726 150,727 Z" fill="black" stroke="none" /><path d="M 82,521 82,527 81,528 81,539 80,540 80,556 79,557 79,577 80,578 80,587 80,578 81,577 81,570 82,569 Z" fill="black" stroke="none" /><path d="M 150,489 149,490 149,491 148,492 148,493 147,494 147,495 146,496 146,497 145,498 145,499 144,500 144,501 143,502 143,503 141,505 141,507 140,508 140,509 139,510 139,511 138,512 138,514 137,515 137,516 136,517 136,519 135,520 135,521 134,522 134,524 133,525 133,527 132,528 132,529 131,530 131,532 130,533 130,536 129,537 129,539 128,540 128,543 127,544 127,546 126,547 126,550 125,551 125,555 124,556 124,560 123,561 123,565 122,566 122,571 121,572 121,578 120,579 120,587 120,584 121,583 121,581 122,580 122,578 123,577 123,576 124,575 124,572 125,571 125,570 126,569 126,567 127,566 127,565 128,564 128,563 129,562 129,560 130,559 130,558 131,557 131,556 132,555 132,554 133,553 133,552 134,551 134,550 135,549 135,548 136,547 136,546 137,545 137,544 138,543 138,542 140,540 140,539 141,538 141,537 142,536 142,535 144,533 144,532 146,530 146,529 148,527 148,526 150,524 Z" fill="black" stroke="none" /><path d="M 932,461 930,463 929,463 926,466 925,466 919,472 918,472 913,477 912,477 897,492 897,493 896,494 895,494 895,495 889,501 889,502 886,505 886,506 882,510 882,511 880,513 880,514 878,516 878,517 876,519 876,520 875,521 875,522 874,523 874,524 873,525 873,526 871,528 871,529 870,530 870,532 869,533 869,534 868,535 868,537 867,538 867,539 866,540 866,543 865,544 865,547 864,548 864,553 863,554 863,572 864,573 864,578 865,579 865,582 866,583 866,585 867,586 867,587 868,588 868,589 869,590 869,591 870,592 870,593 873,596 873,597 874,598 875,598 878,601 879,601 881,603 883,603 884,604 885,604 886,605 888,605 889,606 891,606 892,607 895,607 896,608 902,608 903,609 923,609 924,608 924,604 925,603 925,600 926,599 926,595 927,594 927,590 928,589 928,585 929,584 929,580 930,579 930,572 931,571 931,565 932,564 932,557 933,556 933,547 934,546 934,534 935,533 935,484 934,483 934,471 933,470 933,461 Z" fill="black" stroke="none" /><path d="M 665,441 666,442 666,443 667,444 667,445 669,447 669,448 670,449 670,450 671,451 671,453 673,455 673,457 674,458 674,459 675,460 675,461 676,462 676,463 677,464 677,465 678,466 678,468 679,469 679,470 680,471 680,472 681,473 681,475 682,476 682,478 683,479 683,480 684,481 684,483 685,484 685,486 686,487 686,488 687,489 687,491 688,492 688,495 689,496 689,498 690,499 690,501 691,502 691,504 692,505 692,508 693,509 693,512 694,513 694,516 695,517 695,520 696,521 696,525 697,526 697,529 698,530 698,535 699,536 699,542 700,543 700,548 701,549 701,557 702,558 702,568 703,569 703,608 702,609 702,620 701,621 701,628 700,629 700,634 699,635 699,642 698,643 698,647 697,648 697,652 696,653 696,656 695,657 695,660 694,661 694,664 693,665 693,668 692,669 692,672 691,673 691,675 690,676 690,678 689,679 689,682 688,683 688,685 687,686 687,688 686,689 686,691 685,692 685,694 684,695 684,696 683,697 683,699 682,700 682,702 681,703 681,704 680,705 680,706 679,707 679,709 678,710 678,711 677,712 677,714 676,715 676,716 675,717 675,718 674,719 674,720 673,721 673,722 672,723 672,724 671,725 671,726 670,727 670,728 669,729 669,730 668,731 668,732 667,733 667,734 666,735 666,736 665,737 665,738 663,740 663,741 662,742 662,743 660,745 660,747 658,749 658,750 656,752 656,753 655,754 655,755 653,757 653,758 652,759 652,760 651,761 651,763 650,764 650,765 649,766 649,767 648,768 648,769 647,770 647,771 646,772 646,773 645,774 645,775 644,776 644,777 643,778 643,779 642,780 642,781 640,783 640,784 639,785 639,786 638,787 638,788 636,790 636,791 634,793 634,794 632,796 632,797 630,799 630,800 627,803 627,804 623,808 623,809 620,812 620,813 611,822 611,823 602,832 601,832 597,836 598,835 599,835 602,832 603,832 606,829 607,829 610,826 611,826 614,823 615,823 620,818 621,818 628,811 629,811 654,786 654,785 660,779 660,778 665,773 665,772 669,768 669,767 671,765 671,764 675,760 675,759 677,757 677,756 679,754 679,753 681,751 681,750 684,747 684,746 685,745 685,744 687,742 687,741 689,739 689,738 690,737 690,736 692,734 692,733 693,732 693,731 694,730 694,729 696,727 696,726 697,725 697,724 698,723 698,722 699,721 699,720 700,719 700,718 701,717 701,716 702,715 702,714 704,712 704,710 705,709 705,708 706,707 706,706 707,705 707,704 708,703 708,702 709,701 709,699 710,698 710,697 711,696 711,695 712,694 712,692 713,691 713,690 714,689 714,688 715,687 715,685 716,684 716,682 717,681 717,679 718,678 718,677 719,676 719,674 720,673 720,670 721,669 721,667 722,666 722,664 723,663 723,661 724,660 724,658 725,657 725,655 726,654 726,650 727,649 727,646 728,645 728,642 729,641 729,638 730,637 730,634 731,633 731,628 732,627 732,622 733,621 733,617 734,616 734,610 735,609 735,602 736,601 736,592 737,591 737,542 736,541 736,532 735,531 735,526 734,525 734,524 733,523 733,522 731,520 731,519 730,518 730,517 728,515 728,514 726,512 726,511 725,510 725,509 723,507 723,506 721,504 721,503 719,501 719,500 716,497 716,496 714,494 714,493 710,489 710,488 707,485 707,484 703,480 703,479 697,473 697,472 687,462 687,461 686,461 681,456 681,455 680,455 667,442 666,442 Z" fill="black" stroke="none" /><path d="M 149,430 149,431 144,436 144,437 141,440 141,441 137,445 137,446 135,448 135,449 133,451 133,452 130,455 130,456 129,457 129,458 127,460 127,461 125,463 125,464 124,465 124,466 122,468 122,469 121,470 121,471 119,473 119,474 118,475 118,476 117,477 117,478 116,479 116,480 115,481 115,482 114,483 114,484 113,485 113,486 112,487 112,488 111,489 111,490 110,491 110,492 109,493 109,494 108,495 108,497 107,498 107,499 106,500 106,501 105,502 105,503 104,504 104,506 103,507 103,509 102,510 102,511 101,512 101,514 100,515 100,517 99,518 99,520 98,521 98,522 97,523 97,527 96,528 96,532 95,533 95,538 94,539 94,544 93,545 93,551 92,552 92,561 91,562 91,577 90,578 90,594 91,595 91,600 92,601 92,607 93,608 93,612 94,613 94,617 95,618 95,621 96,622 96,625 97,626 97,630 98,631 98,634 99,635 99,637 100,638 100,641 101,642 101,644 102,645 102,648 103,649 103,651 104,652 104,654 105,655 105,657 106,658 106,660 107,661 107,663 108,664 108,666 109,667 109,669 110,670 110,671 111,672 111,674 112,675 112,676 113,677 113,679 114,680 114,681 115,682 115,684 116,685 116,686 117,687 117,688 118,689 118,690 118,689 117,688 117,685 116,684 116,680 115,679 115,674 114,673 114,667 113,666 113,653 112,652 112,631 113,630 113,618 114,617 114,588 115,587 115,578 116,577 116,571 117,570 117,565 118,564 118,559 119,558 119,554 120,553 120,550 121,549 121,546 122,545 122,543 123,542 123,539 124,538 124,535 125,534 125,532 126,531 126,529 127,528 127,527 128,526 128,524 129,523 129,521 130,520 130,518 131,517 131,516 132,515 132,514 133,513 133,511 134,510 134,509 135,508 135,506 136,505 136,504 137,503 137,502 138,501 138,500 139,499 139,498 140,497 140,496 141,495 141,494 142,493 142,492 144,490 144,489 145,488 145,487 146,486 146,485 148,483 148,482 149,481 149,480 150,479 150,430 Z" fill="black" stroke="none" /><path d="M 366,426 365,427 343,427 342,428 331,428 330,429 324,429 323,430 318,430 317,431 312,431 311,432 307,432 306,433 301,433 300,434 297,434 296,435 293,435 292,436 290,436 289,437 286,437 285,438 283,438 282,439 279,439 278,440 276,440 275,441 273,441 272,442 270,442 269,443 268,443 267,444 264,444 263,445 262,445 261,446 259,446 258,447 257,447 256,448 255,448 254,449 252,449 251,450 250,450 249,451 248,451 247,452 246,452 245,453 243,453 242,454 241,454 240,455 239,455 238,456 237,456 236,457 235,457 233,459 232,459 231,460 230,460 229,461 228,461 227,462 226,462 225,463 224,463 222,465 221,465 220,466 219,466 217,468 216,468 214,470 213,470 211,472 210,472 208,474 207,474 204,477 203,477 201,479 200,479 196,483 195,483 190,488 189,488 186,491 186,624 185,625 185,631 185,630 186,629 186,628 187,627 187,626 188,625 188,624 190,622 190,621 191,620 191,619 193,617 193,616 196,613 196,612 200,608 200,607 207,600 207,599 208,598 209,598 219,588 220,588 223,585 224,585 227,582 228,582 230,580 231,580 232,579 233,579 235,577 236,577 237,576 238,576 239,575 240,575 241,574 242,574 243,573 244,573 245,572 246,572 247,571 248,571 249,570 250,570 251,569 252,569 253,568 255,568 256,567 257,567 258,566 260,566 261,565 263,565 264,564 266,564 267,563 269,563 270,562 272,562 273,561 275,561 276,560 279,560 280,559 284,559 285,558 289,558 290,557 296,557 297,556 307,556 308,555 327,555 328,556 337,556 338,557 344,557 345,558 349,558 350,559 355,559 356,560 359,560 360,561 362,561 363,562 365,562 366,563 368,563 369,564 371,564 372,565 374,565 375,566 377,566 378,567 379,567 380,568 381,568 382,569 383,569 384,570 386,570 387,571 388,571 389,572 390,572 391,573 392,573 393,574 394,574 395,575 396,575 397,576 398,576 399,577 400,577 401,578 402,578 403,579 404,579 406,581 407,581 408,582 409,582 411,584 412,584 415,587 416,587 418,589 419,589 422,592 423,592 427,596 428,596 445,613 445,614 450,619 450,620 453,623 453,624 455,626 455,627 457,629 457,630 459,632 459,633 460,634 460,635 462,637 462,638 463,639 463,640 464,641 464,642 465,643 465,644 466,645 466,646 467,647 467,648 468,649 468,650 469,651 469,652 470,653 470,654 471,655 471,657 472,658 472,659 473,660 473,662 474,663 474,664 475,665 475,667 476,668 476,670 477,671 477,673 478,674 478,676 479,677 479,680 480,681 480,684 481,685 481,688 482,689 482,693 483,694 483,699 484,700 484,713 485,714 485,728 484,729 484,742 483,743 483,748 482,749 482,753 481,754 481,758 480,759 480,762 479,763 479,765 478,766 478,769 477,770 477,772 476,773 476,774 475,775 475,777 474,778 474,779 473,780 473,782 472,783 472,784 471,785 471,786 470,787 470,789 469,790 469,791 468,792 468,793 467,794 467,795 466,796 466,797 465,798 465,799 464,800 464,801 462,803 462,804 461,805 461,806 460,807 460,808 458,810 458,811 456,813 456,814 454,816 454,817 451,820 451,821 449,823 449,824 445,828 445,829 427,847 426,847 421,852 420,852 417,855 416,855 413,858 412,858 411,859 410,859 408,861 407,861 405,863 404,863 403,864 402,864 400,866 399,866 398,867 397,867 396,868 395,868 394,869 393,869 392,870 391,870 390,871 389,871 388,872 387,872 386,873 384,873 383,874 381,874 380,875 379,875 378,876 377,876 376,877 374,877 373,878 371,878 370,879 368,879 367,880 364,880 363,881 360,881 359,882 356,882 355,883 352,883 351,884 347,884 381,884 382,883 391,883 392,882 398,882 399,881 405,881 406,880 410,880 411,879 416,879 417,878 420,878 421,877 424,877 425,876 428,876 429,875 432,875 433,874 435,874 436,873 439,873 440,872 442,872 443,871 445,871 446,870 448,870 449,869 451,869 452,868 454,868 455,867 457,867 458,866 459,866 460,865 462,865 463,864 464,864 465,863 466,863 467,862 469,862 470,861 471,861 472,860 474,860 475,859 476,859 477,858 478,858 479,857 480,857 481,856 482,856 483,855 484,855 485,854 486,854 487,853 488,853 490,851 492,851 493,850 494,850 496,848 497,848 498,847 499,847 500,846 501,846 503,844 504,844 506,842 507,842 509,840 510,840 511,839 512,839 515,836 516,836 517,835 518,835 521,832 522,832 525,829 526,829 529,826 530,826 534,822 535,822 540,817 541,817 553,805 554,805 554,804 556,802 557,802 557,801 568,790 568,789 573,784 573,783 577,779 577,778 581,774 581,773 583,771 583,770 586,767 586,766 588,764 588,763 590,761 590,760 592,758 592,757 593,756 593,755 595,753 595,752 597,750 597,749 599,747 599,745 601,743 601,742 602,741 602,740 603,739 603,738 604,737 604,736 605,735 605,734 606,733 606,732 607,731 607,730 608,729 608,728 609,727 609,726 610,725 610,724 611,723 611,722 612,721 612,719 613,718 613,717 614,716 614,715 615,714 615,712 616,711 616,710 617,709 617,707 618,706 618,704 619,703 619,702 620,701 620,699 621,698 621,696 622,695 622,693 623,692 623,689 624,688 624,686 625,685 625,683 626,682 626,679 627,678 627,675 628,674 628,671 629,670 629,666 630,665 630,662 631,661 631,657 632,656 632,649 633,648 633,642 634,641 634,633 635,632 635,616 636,615 636,602 635,601 635,585 634,584 634,576 633,575 633,573 632,572 632,571 630,569 630,568 628,566 628,565 627,564 627,563 625,561 625,560 623,558 623,557 621,555 621,554 619,552 619,551 616,548 616,547 613,544 613,543 610,540 610,539 605,534 605,533 598,526 598,525 581,508 580,508 573,501 572,501 567,496 566,496 563,493 562,493 558,489 557,489 555,487 554,487 551,484 550,484 548,482 547,482 545,480 544,480 542,478 541,478 539,476 538,476 536,474 535,474 534,473 533,473 532,472 531,472 529,470 528,470 527,469 526,469 524,467 523,467 522,466 521,466 520,465 519,465 518,464 517,464 516,463 515,463 514,462 513,462 512,461 511,461 510,460 509,460 508,459 507,459 506,458 505,458 504,457 503,457 502,456 501,456 500,455 498,455 497,454 496,454 495,453 494,453 493,452 492,452 491,451 489,451 488,450 486,450 485,449 484,449 483,448 481,448 480,447 479,447 478,446 476,446 475,445 473,445 472,444 470,444 469,443 467,443 466,442 464,442 463,441 461,441 460,440 458,440 457,439 454,439 453,438 450,438 449,437 446,437 445,436 442,436 441,435 438,435 437,434 434,434 433,433 428,433 427,432 423,432 422,431 417,431 416,430 411,430 410,429 404,429 403,428 392,428 391,427 368,427 367,426 Z" fill="black" stroke="none" /><path d="M 150,408 147,411 147,412 145,414 145,415 143,417 143,418 141,420 141,421 139,423 139,424 137,426 137,427 136,428 136,429 134,431 134,432 132,434 132,435 131,436 131,437 130,438 130,439 129,440 129,441 127,443 127,444 126,445 126,446 125,447 125,448 124,449 124,450 123,451 123,452 122,453 122,454 121,455 121,456 120,457 120,458 119,459 119,460 118,461 118,462 117,463 117,465 116,466 116,467 115,468 115,469 114,470 114,472 113,473 113,474 112,475 112,476 111,477 111,479 110,480 111,479 111,478 112,477 112,476 113,475 113,474 114,473 114,472 115,471 115,470 117,468 117,467 118,466 118,465 119,464 119,463 121,461 121,460 123,458 123,457 124,456 124,455 126,453 126,452 129,449 129,448 131,446 131,445 134,442 134,441 137,438 137,437 140,434 140,433 146,427 146,426 150,422 Z" fill="black" stroke="none" /><path d="M 150,363 147,366 147,367 144,370 144,371 141,374 141,375 139,377 139,378 136,381 136,382 134,384 134,385 132,387 132,388 130,390 130,391 129,392 129,393 127,395 127,396 126,397 126,398 125,399 125,400 123,402 123,403 122,404 122,405 120,407 120,408 119,409 119,410 118,411 118,412 117,413 117,414 116,415 116,416 115,417 115,418 114,419 114,420 113,421 113,422 112,423 112,424 111,425 111,426 110,427 110,428 109,429 109,430 108,431 108,433 107,434 107,435 106,436 106,437 105,438 105,440 104,441 104,442 103,443 103,445 102,446 102,447 101,448 101,450 100,451 100,453 99,454 99,455 98,456 98,458 97,459 97,461 96,462 96,464 95,465 95,468 94,469 94,473 93,474 93,478 92,479 92,485 91,486 91,491 90,492 90,499 89,500 89,507 88,508 88,519 87,520 87,543 87,540 88,539 88,536 89,535 89,533 90,532 90,529 91,528 91,525 92,524 92,522 93,521 93,518 94,517 94,514 95,513 95,510 96,509 96,506 97,505 97,503 98,502 98,499 99,498 99,496 100,495 100,493 101,492 101,490 102,489 102,487 103,486 103,484 104,483 104,482 105,481 105,479 106,478 106,477 107,476 107,474 108,473 108,471 109,470 109,469 110,468 110,467 111,466 111,464 112,463 112,462 113,461 113,460 114,459 114,458 115,457 115,456 116,455 116,454 117,453 117,452 118,451 118,449 119,448 119,447 121,445 121,444 122,443 122,442 123,441 123,440 124,439 124,438 125,437 125,436 127,434 127,433 128,432 128,431 130,429 130,428 131,427 131,426 133,424 133,423 135,421 135,420 137,418 137,417 139,415 139,414 141,412 141,411 144,408 144,407 146,405 146,404 149,401 149,400 150,399 Z" fill="black" stroke="none" /><path d="M 478,354 479,354 480,355 481,355 482,356 483,356 484,357 485,357 486,358 487,358 488,359 489,359 490,360 491,360 492,361 493,361 494,362 495,362 496,363 497,363 499,365 500,365 501,366 502,366 503,367 504,367 506,369 507,369 509,371 510,371 511,372 512,372 514,374 515,374 518,377 519,377 521,379 522,379 525,382 526,382 528,384 529,384 533,388 534,388 537,391 538,391 545,398 546,398 571,423 571,424 576,429 576,430 580,434 580,435 584,439 584,440 587,443 587,444 589,446 589,447 592,450 592,451 594,453 594,454 595,455 595,456 597,458 597,459 599,461 599,462 600,463 600,464 602,466 602,467 603,468 603,469 605,471 605,472 606,473 606,474 607,475 607,476 608,477 608,478 609,479 609,480 611,482 611,484 612,485 612,486 613,487 613,488 614,489 614,490 615,491 615,492 616,493 616,494 617,495 617,497 618,498 618,499 619,500 619,501 620,502 620,504 621,505 621,506 622,507 622,509 623,510 623,512 624,513 624,514 625,515 625,517 626,518 626,520 627,521 627,523 628,524 628,526 629,527 629,530 630,531 630,533 631,534 631,537 632,538 632,540 633,541 633,545 634,546 634,549 635,550 635,554 636,555 636,559 637,560 637,565 638,566 638,573 639,574 639,575 641,577 641,578 642,579 642,580 643,581 643,582 644,583 644,584 645,585 645,586 646,587 646,588 647,589 647,590 648,591 648,593 649,594 649,595 650,596 650,598 651,599 651,600 652,601 652,602 653,603 653,605 654,606 654,608 655,609 655,611 656,612 656,614 657,615 657,617 658,618 658,620 659,621 659,623 660,624 660,627 661,628 661,631 662,632 662,635 663,636 663,640 664,641 664,645 665,646 665,651 666,652 666,661 667,662 667,676 668,677 668,687 667,688 667,701 666,702 666,711 665,712 665,717 664,718 664,722 663,723 663,726 662,727 662,730 661,731 661,734 660,735 660,736 660,735 662,733 662,732 663,731 663,730 664,729 664,728 665,727 665,726 666,725 666,724 667,723 667,722 668,721 668,720 669,719 669,718 670,717 670,715 671,714 671,713 672,712 672,711 673,710 673,709 674,708 674,706 675,705 675,704 676,703 676,701 677,700 677,699 678,698 678,696 679,695 679,693 680,692 680,691 681,690 681,687 682,686 682,685 683,684 683,682 684,681 684,678 685,677 685,675 686,674 686,672 687,671 687,668 688,667 688,664 689,663 689,660 690,659 690,656 691,655 691,652 692,651 692,646 693,645 693,640 694,639 694,634 695,633 695,628 696,627 696,619 697,618 697,608 698,607 698,570 697,569 697,559 696,558 696,550 695,549 695,544 694,543 694,538 693,537 693,532 692,531 692,527 691,526 691,522 690,521 690,518 689,517 689,514 688,513 688,510 687,509 687,506 686,505 686,503 685,502 685,500 684,499 684,497 683,496 683,494 682,493 682,491 681,490 681,488 680,487 680,485 679,484 679,482 678,481 678,480 677,479 677,477 676,476 676,474 675,473 675,472 674,471 674,470 673,469 673,468 672,467 672,465 671,464 671,463 670,462 670,461 669,460 669,459 668,458 668,457 667,456 667,455 666,454 666,453 665,452 665,450 663,448 663,447 662,446 662,445 661,444 661,443 660,442 660,441 659,440 659,439 657,437 657,436 656,435 656,434 650,428 649,428 646,425 645,425 642,422 641,422 638,419 637,419 635,417 634,417 632,415 631,415 629,413 628,413 626,411 625,411 623,409 622,409 620,407 619,407 618,406 617,406 615,404 614,404 613,403 612,403 610,401 609,401 608,400 607,400 606,399 605,399 603,397 602,397 601,396 600,396 599,395 598,395 597,394 596,394 595,393 594,393 593,392 592,392 590,390 589,390 588,389 586,389 585,388 584,388 583,387 582,387 581,386 580,386 579,385 578,385 577,384 576,384 575,383 573,383 572,382 571,382 570,381 569,381 568,380 567,380 566,379 564,379 563,378 561,378 560,377 559,377 558,376 557,376 556,375 554,375 553,374 552,374 551,373 548,373 547,372 546,372 545,371 543,371 542,370 540,370 539,369 537,369 536,368 534,368 533,367 531,367 530,366 527,366 526,365 524,365 523,364 521,364 520,363 517,363 516,362 513,362 512,361 509,361 508,360 505,360 504,359 501,359 500,358 496,358 495,357 492,357 491,356 486,356 485,355 480,355 479,354 Z" fill="black" stroke="none" /><path d="M 402,349 401,350 386,350 385,351 374,351 373,352 367,352 366,353 361,353 360,354 355,354 354,355 350,355 349,356 343,356 342,357 339,357 338,358 335,358 334,359 331,359 330,360 327,360 326,361 324,361 323,362 319,362 318,363 316,363 315,364 313,364 312,365 310,365 309,366 307,366 306,367 303,367 302,368 301,368 300,369 298,369 297,370 295,370 294,371 293,371 292,372 290,372 289,373 287,373 286,374 285,374 284,375 283,375 282,376 280,376 279,377 278,377 277,378 275,378 274,379 273,379 272,380 271,380 270,381 269,381 268,382 267,382 266,383 265,383 264,384 263,384 262,385 261,385 260,386 259,386 258,387 257,387 255,389 253,389 251,391 250,391 249,392 248,392 246,394 245,394 244,395 243,395 242,396 241,396 239,398 238,398 236,400 235,400 233,402 232,402 230,404 229,404 227,406 226,406 223,409 222,409 220,411 219,411 216,414 215,414 211,418 210,418 205,423 204,423 194,433 193,433 191,435 191,436 188,439 187,439 187,440 186,441 186,484 187,484 192,479 193,479 196,476 197,476 200,473 201,473 204,470 205,470 207,468 208,468 210,466 211,466 213,464 214,464 216,462 217,462 218,461 219,461 220,460 221,460 223,458 224,458 225,457 226,457 228,455 229,455 230,454 231,454 232,453 233,453 234,452 235,452 236,451 237,451 238,450 239,450 240,449 241,449 242,448 243,448 244,447 245,447 246,446 248,446 249,445 250,445 251,444 252,444 253,443 255,443 256,442 257,442 258,441 260,441 261,440 262,440 263,439 265,439 266,438 268,438 269,437 271,437 272,436 274,436 275,435 277,435 278,434 280,434 281,433 284,433 285,432 288,432 289,431 291,431 292,430 295,430 296,429 300,429 301,428 304,428 305,427 310,427 311,426 315,426 316,425 322,425 323,424 329,424 330,423 338,423 339,422 352,422 353,421 380,421 381,422 394,422 395,423 404,423 405,424 411,424 412,425 417,425 418,426 423,426 424,427 429,427 430,428 434,428 435,429 438,429 439,430 442,430 443,431 446,431 447,432 451,432 452,433 454,433 455,434 458,434 459,435 461,435 462,436 464,436 465,437 467,437 468,438 471,438 472,439 473,439 474,440 476,440 477,441 479,441 480,442 481,442 482,443 485,443 486,444 487,444 488,445 489,445 490,446 492,446 493,447 494,447 495,448 496,448 497,449 499,449 500,450 501,450 502,451 503,451 504,452 505,452 506,453 507,453 508,454 510,454 511,455 512,455 513,456 514,456 515,457 516,457 518,459 519,459 520,460 521,460 522,461 523,461 524,462 525,462 526,463 527,463 529,465 530,465 531,466 532,466 533,467 534,467 536,469 537,469 539,471 540,471 541,472 542,472 544,474 545,474 547,476 548,476 550,478 551,478 553,480 554,480 556,482 557,482 561,486 562,486 564,488 565,488 570,493 571,493 576,498 577,498 584,505 585,505 601,521 601,522 609,530 609,531 613,535 613,536 617,540 617,541 620,544 620,545 622,547 622,548 625,551 625,552 627,554 627,555 629,557 629,558 631,560 631,561 632,561 631,560 631,556 630,555 630,551 629,550 629,547 628,546 628,543 627,542 627,539 626,538 626,535 625,534 625,532 624,531 624,528 623,527 623,525 622,524 622,522 621,521 621,519 620,518 620,516 619,515 619,514 618,513 618,511 617,510 617,508 616,507 616,506 615,505 615,503 614,502 614,501 613,500 613,499 612,498 612,497 611,496 611,494 610,493 610,492 609,491 609,490 608,489 608,488 607,487 607,486 606,485 606,484 605,483 605,482 604,481 604,480 603,479 603,478 602,477 602,476 600,474 600,473 599,472 599,471 598,470 598,469 597,468 597,467 595,465 595,464 593,462 593,461 592,460 592,459 590,457 590,456 588,454 588,453 585,450 585,449 583,447 583,446 580,443 580,442 577,439 577,438 573,434 573,433 567,427 567,426 541,400 540,400 535,395 534,395 530,391 529,391 526,388 525,388 522,385 521,385 519,383 518,383 515,380 514,380 512,378 511,378 510,377 509,377 507,375 506,375 504,373 503,373 502,372 501,372 499,370 498,370 497,369 496,369 494,367 492,367 490,365 489,365 488,364 487,364 486,363 485,363 484,362 483,362 482,361 481,361 480,360 479,360 478,359 477,359 476,358 475,358 474,357 472,357 471,356 470,356 469,355 467,355 466,354 465,354 464,353 463,353 462,352 460,352 459,351 448,351 447,350 432,350 431,349 Z" fill="black" stroke="none" /><path d="M 150,338 150,339 147,342 147,343 146,344 146,345 144,347 144,348 142,350 142,351 141,352 141,353 139,355 139,356 137,358 137,359 136,360 136,361 135,362 135,363 133,365 133,366 132,367 132,368 131,369 131,370 130,371 130,372 129,373 129,374 127,376 127,377 126,378 126,379 125,380 125,382 123,384 123,386 122,387 122,388 121,389 121,390 120,391 120,392 119,393 119,394 118,395 118,397 117,398 117,399 116,400 116,401 115,402 115,403 114,404 114,406 113,407 113,409 112,410 112,411 111,412 111,414 110,415 110,416 109,417 109,419 108,420 109,419 109,418 110,417 110,416 111,415 111,414 112,413 112,412 113,411 113,410 114,409 114,408 115,407 115,406 116,405 116,404 118,402 118,401 119,400 119,399 120,398 120,397 122,395 122,394 124,392 124,391 125,390 125,389 127,387 127,386 129,384 129,383 130,382 130,381 132,379 132,378 135,375 135,374 137,372 137,371 140,368 140,367 143,364 143,363 146,360 146,359 150,355 Z" fill="black" stroke="none" /><path d="M 341,333 340,334 329,334 328,335 321,335 320,336 315,336 314,337 310,337 309,338 305,338 304,339 300,339 299,340 295,340 294,341 291,341 290,342 288,342 287,343 284,343 283,344 281,344 280,345 277,345 276,346 274,346 273,347 271,347 270,348 268,348 267,349 266,349 265,350 263,350 262,351 260,351 259,352 258,352 257,353 255,353 254,354 253,354 252,355 251,355 250,356 248,356 247,357 246,357 245,358 244,358 243,359 242,359 241,360 240,360 239,361 238,361 237,362 235,362 233,364 232,364 231,365 230,365 229,366 228,366 227,367 226,367 225,368 224,368 222,370 221,370 220,371 219,371 217,373 216,373 215,374 214,374 212,376 211,376 209,378 208,378 206,380 205,380 203,382 202,382 200,384 199,384 196,387 195,387 193,389 192,389 187,394 186,394 186,433 187,433 199,421 200,421 206,415 207,415 211,411 212,411 216,407 217,407 219,405 220,405 223,402 224,402 226,400 227,400 229,398 230,398 232,396 233,396 235,394 236,394 237,393 238,393 240,391 241,391 243,389 244,389 245,388 246,388 247,387 248,387 250,385 251,385 252,384 253,384 254,383 255,383 256,382 257,382 258,381 259,381 260,380 261,380 262,379 263,379 264,378 265,378 266,377 267,377 268,376 269,376 270,375 271,375 272,374 273,374 274,373 276,373 277,372 278,372 279,371 280,371 281,370 283,370 284,369 285,369 286,368 288,368 289,367 290,367 291,366 293,366 294,365 296,365 297,364 299,364 300,363 301,363 302,362 304,362 305,361 308,361 309,360 311,360 312,359 314,359 315,358 317,358 318,357 321,357 322,356 324,356 325,355 329,355 330,354 333,354 334,353 337,353 338,352 342,352 343,351 346,351 347,350 353,350 354,349 358,349 359,348 365,348 366,347 372,347 373,346 381,346 382,345 394,345 395,344 437,344 438,345 441,345 439,345 438,344 436,344 435,343 433,343 432,342 429,342 428,341 425,341 424,340 420,340 419,339 416,339 415,338 411,338 410,337 405,337 404,336 399,336 398,335 392,335 391,334 379,334 378,333 Z" fill="black" stroke="none" /><path d="M 374,285 373,286 363,286 362,287 355,287 354,288 348,288 347,289 342,289 341,290 336,290 335,291 331,291 330,292 327,292 326,293 323,293 322,294 319,294 318,295 315,295 314,296 311,296 310,297 308,297 307,298 305,298 304,299 302,299 301,300 299,300 298,301 295,301 294,302 293,302 292,303 290,303 289,304 287,304 286,305 285,305 284,306 282,306 281,307 279,307 278,308 277,308 276,309 275,309 274,310 273,310 272,311 271,311 270,312 268,312 267,313 266,313 265,314 264,314 263,315 262,315 261,316 260,316 259,317 257,317 255,319 254,319 253,320 252,320 251,321 250,321 249,322 248,322 247,323 246,323 244,325 243,325 242,326 241,326 239,328 238,328 237,329 236,329 235,330 234,330 232,332 231,332 229,334 228,334 226,336 225,336 223,338 222,338 220,340 219,340 216,343 215,343 213,345 212,345 209,348 208,348 204,352 203,352 199,356 198,356 192,362 191,362 191,363 190,364 189,364 186,367 186,388 188,386 189,386 192,383 193,383 195,381 196,381 199,378 200,378 202,376 203,376 205,374 206,374 208,372 209,372 211,370 212,370 213,369 214,369 216,367 217,367 218,366 219,366 221,364 222,364 223,363 224,363 225,362 226,362 227,361 228,361 229,360 230,360 232,358 233,358 234,357 235,357 236,356 237,356 238,355 240,355 241,354 242,354 243,353 244,353 245,352 246,352 247,351 248,351 249,350 251,350 252,349 253,349 254,348 256,348 257,347 258,347 259,346 261,346 262,345 263,345 264,344 267,344 268,343 269,343 270,342 272,342 273,341 275,341 276,340 278,340 279,339 283,339 284,338 286,338 287,337 289,337 290,336 293,336 294,335 297,335 298,334 302,334 303,333 308,333 309,332 313,332 314,331 319,331 320,330 327,330 328,329 336,329 337,328 382,328 383,329 392,329 393,330 399,330 400,331 405,331 406,332 410,332 411,333 417,333 418,334 421,334 422,335 425,335 426,336 429,336 430,337 433,337 434,338 436,338 437,339 440,339 441,340 443,340 444,341 446,341 447,342 449,342 450,343 452,343 453,344 455,344 456,345 458,345 459,346 461,346 462,347 468,347 469,348 474,348 475,349 480,349 481,350 487,350 488,351 492,351 493,352 496,352 497,353 501,353 502,354 505,354 506,355 510,355 511,356 514,356 515,357 517,357 518,358 521,358 522,359 524,359 525,360 527,360 528,361 531,361 532,362 534,362 535,363 537,363 538,364 540,364 541,365 543,365 544,366 546,366 547,367 549,367 550,368 552,368 553,369 554,369 555,370 557,370 558,371 559,371 560,372 562,372 563,373 565,373 566,374 567,374 568,375 569,375 570,376 571,376 572,377 574,377 575,378 576,378 577,379 578,379 579,380 580,380 581,381 582,381 583,382 584,382 585,383 587,383 588,384 589,384 590,385 591,385 592,386 593,386 594,387 595,387 596,388 597,388 598,389 599,389 601,391 602,391 603,392 604,392 605,393 606,393 607,394 608,394 609,395 610,395 612,397 613,397 615,399 616,399 617,400 618,400 619,401 620,401 622,403 623,403 625,405 626,405 628,407 629,407 631,409 632,409 634,411 635,411 637,413 638,413 641,416 642,416 644,418 645,418 647,420 645,418 645,417 643,415 643,414 641,412 641,411 638,408 638,407 635,404 635,403 632,400 632,399 626,393 626,392 621,387 621,386 597,362 596,362 590,356 589,356 584,351 583,351 580,348 579,348 576,345 575,345 572,342 571,342 569,340 568,340 565,337 564,337 562,335 561,335 560,334 559,334 557,332 556,332 554,330 553,330 552,329 551,329 549,327 548,327 547,326 546,326 544,324 543,324 542,323 541,323 540,322 539,322 538,321 537,321 535,319 534,319 533,318 532,318 531,317 529,317 527,315 525,315 524,314 523,314 522,313 521,313 520,312 519,312 518,311 517,311 516,310 514,310 513,309 512,309 511,308 510,308 509,307 507,307 506,306 504,306 503,305 502,305 501,304 499,304 498,303 497,303 496,302 494,302 493,301 490,301 489,300 487,300 486,299 484,299 483,298 481,298 480,297 478,297 477,296 474,296 473,295 470,295 469,294 466,294 465,293 462,293 461,292 458,292 457,291 453,291 452,290 446,290 445,289 440,289 439,288 434,288 433,287 426,287 425,286 414,286 413,285 Z" fill="black" stroke="none" /><path d="M 129,279 127,281 127,282 125,284 125,285 124,286 124,287 123,288 123,289 121,291 121,292 120,293 120,294 119,295 119,296 117,298 117,299 116,300 116,301 115,302 115,303 114,304 114,305 113,306 113,307 112,308 112,309 111,310 111,311 109,313 109,314 108,315 108,317 107,318 107,319 106,320 106,321 105,322 105,323 104,324 104,325 103,326 103,327 102,328 102,329 101,330 101,331 100,332 100,334 99,335 99,336 98,337 98,338 97,339 97,341 96,342 96,343 95,344 95,345 94,346 94,348 93,349 93,350 92,351 92,353 91,354 91,355 90,356 90,358 89,359 89,361 88,362 88,363 87,364 87,366 86,367 86,369 85,370 85,372 84,373 84,375 83,376 83,378 82,379 82,381 81,382 81,385 80,386 80,388 79,389 79,392 78,393 78,395 77,396 77,399 76,400 76,403 75,404 75,407 74,408 74,412 73,413 73,416 72,417 72,421 71,422 71,425 70,426 70,432 69,433 69,437 68,438 68,443 67,444 67,450 66,451 66,458 65,459 65,468 64,469 64,483 63,484 63,536 64,537 64,551 65,552 65,561 66,562 66,568 67,569 67,575 68,576 68,581 69,582 69,587 70,588 70,593 71,594 71,598 72,599 72,603 73,604 73,607 74,608 74,611 75,612 75,616 76,617 76,620 77,621 77,623 78,624 78,626 79,627 79,630 80,631 80,632 80,628 79,627 79,620 78,619 78,614 77,613 77,607 76,606 76,598 75,597 75,584 74,583 74,550 75,549 75,536 76,535 76,527 77,526 77,520 78,519 78,514 79,513 79,508 80,507 80,502 81,501 81,497 82,496 82,493 83,492 83,489 84,488 84,485 85,484 85,481 86,480 86,477 87,476 87,474 88,473 88,470 89,469 89,467 90,466 90,464 91,463 91,459 92,458 92,455 93,454 93,451 94,450 94,448 95,447 95,444 96,443 96,440 97,439 97,437 98,436 98,434 99,433 99,431 100,430 100,428 101,427 101,425 102,424 102,421 103,420 103,419 104,418 104,416 105,415 105,413 106,412 106,411 107,410 107,408 108,407 108,406 109,405 109,403 110,402 110,401 111,400 111,399 112,398 112,396 113,395 113,394 114,393 114,392 115,391 115,389 116,388 116,387 117,386 117,385 118,384 118,383 119,382 119,381 120,380 120,379 121,378 121,377 122,376 122,375 123,374 123,373 124,372 124,371 125,370 125,369 127,367 127,366 128,365 128,364 129,363 129,362 130,361 130,360 132,358 132,357 133,356 133,355 135,353 135,352 136,351 136,350 138,348 138,347 140,345 140,344 141,343 141,342 144,339 144,338 146,336 146,335 148,333 148,332 150,330 150,279 Z" fill="black" stroke="none" /><path d="M 384,238 383,239 374,239 373,240 364,240 363,241 358,241 357,242 352,242 351,243 347,243 346,244 342,244 341,245 337,245 336,246 332,246 331,247 329,247 328,248 325,248 324,249 321,249 320,250 318,250 317,251 314,251 313,252 311,252 310,253 308,253 307,254 305,254 304,255 302,255 301,256 299,256 298,257 296,257 295,258 293,258 292,259 291,259 290,260 288,260 287,261 286,261 285,262 283,262 282,263 281,263 280,264 278,264 277,265 276,265 275,266 274,266 273,267 272,267 271,268 269,268 268,269 267,269 266,270 265,270 264,271 263,271 262,272 261,272 260,273 259,273 258,274 257,274 256,275 255,275 253,277 252,277 251,278 250,278 249,279 248,279 247,280 246,280 244,282 243,282 242,283 241,283 240,284 239,284 237,286 236,286 234,288 233,288 232,289 231,289 229,291 228,291 226,293 225,293 223,295 222,295 220,297 219,297 216,300 215,300 212,303 211,303 208,306 207,306 204,309 203,309 199,313 198,313 193,318 192,318 186,324 186,361 194,353 195,353 199,349 200,349 205,344 206,344 209,341 210,341 212,339 213,339 216,336 217,336 219,334 220,334 222,332 223,332 225,330 226,330 228,328 229,328 230,327 231,327 233,325 234,325 236,323 237,323 238,322 239,322 240,321 241,321 243,319 244,319 245,318 246,318 247,317 248,317 249,316 250,316 251,315 252,315 254,313 255,313 256,312 257,312 258,311 260,311 261,310 262,310 263,309 264,309 265,308 266,308 267,307 268,307 269,306 270,306 271,305 273,305 274,304 275,304 276,303 277,303 278,302 280,302 281,301 282,301 283,300 285,300 286,299 288,299 289,298 291,298 292,297 293,297 294,296 296,296 297,295 299,295 300,294 303,294 304,293 306,293 307,292 309,292 310,291 313,291 314,290 316,290 317,289 321,289 322,288 325,288 326,287 329,287 330,286 334,286 335,285 339,285 340,284 345,284 346,283 353,283 354,282 361,282 362,281 372,281 373,280 415,280 416,281 426,281 427,282 434,282 435,283 442,283 443,284 448,284 449,285 453,285 454,286 457,286 458,287 462,287 463,288 466,288 467,289 471,289 472,290 474,290 475,291 478,291 479,292 481,292 482,293 484,293 485,294 488,294 489,295 491,295 492,296 494,296 495,297 497,297 498,298 499,298 500,299 502,299 503,300 505,300 506,301 507,301 508,302 510,302 511,303 512,303 513,304 514,304 515,305 517,305 518,306 519,306 520,307 521,307 522,308 524,308 525,309 526,309 527,310 528,310 529,311 530,311 531,312 532,312 533,313 534,313 535,314 536,314 537,315 538,315 539,316 540,316 541,317 542,317 544,319 545,319 546,320 547,320 549,322 550,322 551,323 552,323 553,324 554,324 556,326 557,326 559,328 560,328 561,329 562,329 564,331 565,331 567,333 568,333 570,335 571,335 574,338 575,338 578,341 579,341 582,344 583,344 586,347 587,347 592,352 593,352 600,359 601,359 624,382 624,383 631,390 631,391 635,395 635,396 639,400 639,401 642,404 642,405 644,407 644,408 647,411 647,412 649,414 649,415 651,417 651,418 653,420 653,421 655,423 655,424 657,426 657,427 662,432 663,432 669,438 670,438 686,454 687,454 688,455 688,456 699,467 699,468 706,475 706,476 710,480 710,481 714,485 714,486 717,489 717,490 720,493 720,494 723,497 723,498 725,500 725,501 727,503 727,504 729,506 729,507 731,509 731,510 732,511 732,512 733,513 733,511 732,510 732,506 731,505 731,500 730,499 730,496 729,495 729,491 728,490 728,487 727,486 727,484 726,483 726,479 725,478 725,476 724,475 724,473 723,472 723,469 722,468 722,466 721,465 721,463 720,462 720,460 719,459 719,457 718,456 718,455 717,454 717,452 716,451 716,450 715,449 715,446 714,445 714,444 713,443 713,442 712,441 712,439 711,438 711,437 710,436 710,435 709,434 709,432 708,431 708,430 707,429 707,428 706,427 706,426 705,425 705,424 704,423 704,422 703,421 703,420 702,419 702,418 701,417 701,416 700,415 700,414 699,413 699,412 698,411 698,410 697,409 697,408 695,406 695,405 694,404 694,403 693,402 693,401 691,399 691,398 690,397 690,396 688,394 688,393 687,392 687,391 685,389 685,388 683,386 683,385 681,383 681,382 679,380 679,379 676,376 676,375 674,373 674,372 671,369 671,368 668,365 668,364 665,361 665,360 659,354 659,353 654,348 654,347 629,322 628,322 621,315 620,315 615,310 614,310 610,306 609,306 606,303 605,303 603,301 602,301 599,298 598,298 595,295 594,295 593,294 592,294 590,292 589,292 587,290 586,290 584,288 583,288 581,286 580,286 579,285 578,285 576,283 575,283 574,282 573,282 571,280 570,280 569,279 568,279 567,278 566,278 565,277 564,277 563,276 562,276 560,274 559,274 558,273 556,273 555,272 554,272 553,271 552,271 551,270 550,270 549,269 548,269 547,268 546,268 545,267 544,267 543,266 541,266 540,265 539,265 538,264 537,264 536,263 535,263 534,262 532,262 531,261 529,261 528,260 527,260 526,259 524,259 523,258 522,258 521,257 518,257 517,256 516,256 515,255 513,255 512,254 510,254 509,253 507,253 506,252 504,252 503,251 500,251 499,250 496,250 495,249 493,249 492,248 489,248 488,247 485,247 484,246 480,246 479,245 475,245 474,244 471,244 470,243 465,243 464,242 460,242 459,241 453,241 452,240 443,240 442,239 433,239 432,238 Z" fill="black" stroke="none" /><path d="M 446,180 445,181 423,181 422,182 412,182 411,183 404,183 403,184 397,184 396,185 389,185 388,186 384,186 383,187 379,187 378,188 374,188 373,189 370,189 369,190 366,190 365,191 361,191 360,192 357,192 356,193 354,193 353,194 350,194 349,195 347,195 346,196 343,196 342,197 340,197 339,198 337,198 336,199 334,199 333,200 331,200 330,201 329,201 328,202 325,202 324,203 323,203 322,204 320,204 319,205 318,205 317,206 315,206 314,207 312,207 311,208 310,208 309,209 308,209 307,210 306,210 305,211 303,211 302,212 301,212 300,213 299,213 298,214 297,214 296,215 295,215 294,216 293,216 292,217 290,217 289,218 288,218 287,219 286,219 285,220 284,220 282,222 281,222 280,223 279,223 278,224 277,224 276,225 275,225 274,226 273,226 272,227 271,227 269,229 268,229 267,230 266,230 265,231 264,231 262,233 261,233 259,235 258,235 257,236 256,236 254,238 253,238 251,240 250,240 249,241 248,241 245,244 244,244 242,246 241,246 239,248 238,248 235,251 234,251 231,254 230,254 227,257 226,257 222,261 221,261 217,265 216,265 209,272 208,272 196,284 195,284 191,288 191,289 190,290 189,290 189,291 186,294 186,317 187,316 188,316 194,310 195,310 200,305 201,305 204,302 205,302 208,299 209,299 212,296 213,296 215,294 216,294 219,291 220,291 222,289 223,289 225,287 226,287 228,285 229,285 231,283 232,283 233,282 234,282 236,280 237,280 238,279 239,279 240,278 241,278 243,276 244,276 245,275 246,275 248,273 249,273 250,272 251,272 252,271 253,271 254,270 255,270 256,269 257,269 258,268 259,268 260,267 261,267 262,266 263,266 264,265 265,265 266,264 267,264 268,263 269,263 270,262 271,262 272,261 274,261 275,260 276,260 277,259 278,259 279,258 281,258 282,257 283,257 284,256 286,256 287,255 289,255 290,254 291,254 292,253 294,253 295,252 296,252 297,251 299,251 300,250 303,250 304,249 306,249 307,248 309,248 310,247 312,247 313,246 315,246 316,245 319,245 320,244 323,244 324,243 327,243 328,242 330,242 331,241 334,241 335,240 339,240 340,239 345,239 346,238 350,238 351,237 356,237 357,236 362,236 363,235 370,235 371,234 382,234 383,233 403,233 404,232 412,232 413,233 433,233 434,234 445,234 446,235 453,235 454,236 460,236 461,237 465,237 466,238 470,238 471,239 476,239 477,240 481,240 482,241 485,241 486,242 489,242 490,243 493,243 494,244 496,244 497,245 500,245 501,246 504,246 505,247 507,247 508,248 510,248 511,249 513,249 514,250 516,250 517,251 519,251 520,252 522,252 523,253 524,253 525,254 527,254 528,255 529,255 530,256 532,256 533,257 535,257 536,258 537,258 538,259 539,259 540,260 542,260 543,261 544,261 545,262 546,262 547,263 549,263 550,264 551,264 552,265 553,265 555,267 557,267 558,268 559,268 560,269 561,269 562,270 563,270 565,272 567,272 569,274 570,274 571,275 572,275 574,277 575,277 576,278 577,278 578,279 579,279 581,281 582,281 583,282 584,282 586,284 587,284 589,286 590,286 592,288 593,288 594,289 595,289 598,292 599,292 601,294 602,294 605,297 606,297 609,300 610,300 613,303 614,303 617,306 618,306 623,311 624,311 631,318 632,318 655,341 655,342 663,350 663,351 668,356 668,357 671,360 671,361 675,365 675,366 678,369 678,370 681,373 681,374 683,376 683,377 685,379 685,380 687,382 687,383 689,385 689,386 691,388 691,389 693,391 693,392 694,393 694,394 696,396 696,397 697,398 697,399 699,401 699,403 701,405 701,406 702,407 702,408 703,409 703,410 705,412 705,414 706,415 706,416 708,418 708,419 709,420 709,421 710,422 710,424 711,425 711,426 712,427 712,428 713,429 713,430 714,431 714,432 715,433 715,435 716,436 716,437 717,438 717,440 718,441 718,442 719,443 719,444 720,445 720,447 721,448 721,450 722,451 722,453 723,454 723,455 724,456 724,458 725,459 725,461 726,462 726,464 727,465 727,468 728,469 728,471 729,472 729,474 730,475 730,477 731,478 731,481 732,482 732,486 733,487 733,489 734,490 734,493 735,494 735,498 736,499 736,503 737,504 737,508 738,509 738,515 739,516 739,522 740,523 740,525 741,526 741,527 742,528 742,529 743,530 743,531 744,532 744,533 745,534 745,535 746,536 746,537 747,538 747,539 748,540 748,541 749,542 749,543 750,544 750,545 751,546 751,548 752,549 752,550 753,551 753,552 754,553 754,555 755,556 755,557 756,558 756,560 757,561 757,562 758,563 758,565 759,566 759,567 760,568 760,571 761,572 761,574 762,575 762,577 763,578 763,580 764,581 764,583 765,584 765,587 766,588 766,591 767,592 767,595 768,596 768,599 769,600 769,604 770,605 770,609 771,610 771,616 772,617 772,623 773,624 773,632 774,633 774,674 773,675 773,683 772,684 772,690 771,691 771,697 770,698 770,702 769,703 769,706 768,707 768,710 767,711 767,714 766,715 766,718 765,719 765,721 765,720 767,718 767,717 768,716 768,715 769,714 769,713 770,712 770,711 771,710 771,709 772,708 772,707 773,706 773,705 774,704 774,703 775,702 775,701 776,700 776,699 777,698 777,697 778,696 778,695 779,694 779,693 780,692 780,691 781,690 781,688 782,687 782,686 783,685 783,683 784,682 784,681 785,680 785,679 786,678 786,676 787,675 787,673 788,672 788,671 789,670 789,668 790,667 790,665 791,664 791,663 792,662 792,659 793,658 793,656 794,655 794,653 795,652 795,650 796,649 796,647 797,646 797,643 798,642 798,640 799,639 799,636 800,635 800,632 801,631 801,628 802,627 802,624 803,623 803,619 804,618 804,614 805,613 805,609 806,608 806,604 807,603 807,598 808,597 808,590 809,589 809,582 810,581 810,571 811,570 811,553 812,552 812,534 811,533 811,515 810,514 810,505 809,504 809,497 808,496 808,488 807,487 807,483 806,482 806,477 805,476 805,472 804,471 804,468 803,467 803,462 802,461 802,458 801,457 801,454 800,453 800,451 799,450 799,447 798,446 798,444 797,443 797,440 796,439 796,436 795,435 795,433 794,432 794,430 793,429 793,428 792,427 792,424 791,423 791,421 790,420 790,419 789,418 789,416 788,415 788,414 787,413 787,411 786,410 786,408 785,407 785,406 784,405 784,404 783,403 783,401 782,400 782,399 781,398 781,396 780,395 780,394 779,393 779,392 778,391 778,390 777,389 777,388 776,387 776,386 775,385 775,384 774,383 774,382 773,381 773,380 772,379 772,378 771,377 771,376 770,375 770,374 769,373 769,372 768,371 768,370 767,369 767,368 765,366 765,365 764,364 764,363 763,362 763,361 761,359 761,358 760,357 760,356 759,355 759,354 757,352 757,351 755,349 755,348 753,346 753,345 751,343 751,342 749,340 749,339 748,338 748,337 745,334 745,333 742,330 742,329 740,327 740,326 737,323 737,322 733,318 733,317 729,313 729,312 724,307 724,306 715,297 715,296 696,277 695,277 686,268 685,268 679,262 678,262 675,259 674,259 670,255 669,255 666,252 665,252 663,250 662,250 659,247 658,247 656,245 655,245 652,242 651,242 649,240 648,240 647,239 646,239 644,237 643,237 641,235 640,235 639,234 638,234 636,232 635,232 634,231 633,231 631,229 630,229 629,228 628,228 627,227 626,227 624,225 623,225 622,224 621,224 620,223 619,223 618,222 617,222 616,221 615,221 614,220 613,220 612,219 611,219 610,218 609,218 608,217 607,217 606,216 605,216 604,215 603,215 602,214 601,214 600,213 598,213 597,212 596,212 595,211 594,211 593,210 592,210 591,209 589,209 588,208 587,208 586,207 584,207 583,206 582,206 581,205 579,205 578,204 577,204 576,203 574,203 573,202 571,202 570,201 568,201 567,200 565,200 564,199 562,199 561,198 559,198 558,197 556,197 555,196 552,196 551,195 549,195 548,194 545,194 544,193 542,193 541,192 538,192 537,191 533,191 532,190 529,190 528,189 525,189 524,188 520,188 519,187 515,187 514,186 510,186 509,185 502,185 501,184 495,184 494,183 487,183 486,182 476,182 475,181 453,181 452,180 Z" fill="black" stroke="none" /><path d="M 486,71 485,72 466,72 465,73 455,73 454,74 446,74 445,75 437,75 436,76 431,76 430,77 425,77 424,78 419,78 418,79 414,79 413,80 409,80 408,81 404,81 403,82 400,82 399,83 396,83 395,84 392,84 391,85 389,85 388,86 384,86 383,87 381,87 380,88 378,88 377,89 374,89 373,90 372,90 371,91 368,91 367,92 365,92 364,93 362,93 361,94 359,94 358,95 357,95 356,96 354,96 353,97 351,97 350,98 348,98 347,99 346,99 345,100 343,100 342,101 341,101 340,102 338,102 337,103 336,103 335,104 333,104 332,105 331,105 330,106 329,106 328,107 327,107 326,108 324,108 323,109 322,109 321,110 320,110 319,111 318,111 317,112 316,112 315,113 314,113 313,114 311,114 310,115 309,115 308,116 307,116 306,117 305,117 304,118 303,118 302,119 301,119 300,120 299,120 298,121 297,121 295,123 294,123 293,124 292,124 291,125 290,125 289,126 288,126 286,128 285,128 284,129 283,129 282,130 281,130 280,131 279,131 277,133 276,133 274,135 273,135 272,136 271,136 269,138 268,138 266,140 265,140 264,141 263,141 261,143 260,143 258,145 257,145 255,147 254,147 251,150 250,150 248,152 247,152 245,154 244,154 240,158 239,158 237,160 236,160 233,163 232,163 227,168 226,168 222,172 221,172 215,178 214,178 205,187 204,187 182,209 182,210 171,221 171,222 166,227 166,228 161,233 161,234 157,238 157,239 153,243 153,244 152,245 185,245 186,246 186,287 205,268 206,268 213,261 214,261 218,257 219,257 223,253 224,253 227,250 228,250 231,247 232,247 234,245 235,245 238,242 239,242 242,239 243,239 244,238 245,238 247,236 248,236 250,234 251,234 253,232 254,232 256,230 257,230 258,229 259,229 260,228 261,228 263,226 264,226 266,224 267,224 268,223 269,223 270,222 271,222 272,221 273,221 275,219 276,219 277,218 278,218 279,217 280,217 281,216 282,216 283,215 284,215 285,214 286,214 287,213 288,213 289,212 290,212 291,211 292,211 293,210 294,210 295,209 296,209 297,208 299,208 300,207 301,207 302,206 304,206 305,205 306,205 307,204 308,204 309,203 310,203 311,202 313,202 314,201 316,201 317,200 318,200 319,199 321,199 322,198 323,198 324,197 326,197 327,196 329,196 330,195 332,195 333,194 335,194 336,193 338,193 339,192 341,192 342,191 344,191 345,190 349,190 350,189 352,189 353,188 355,188 356,187 359,187 360,186 363,186 364,185 367,185 368,184 372,184 373,183 377,183 378,182 382,182 383,181 388,181 389,180 394,180 395,179 402,179 403,178 410,178 411,177 421,177 422,176 439,176 440,175 458,175 459,176 476,176 477,177 487,177 488,178 495,178 496,179 503,179 504,180 509,180 510,181 515,181 516,182 520,182 521,183 525,183 526,184 530,184 531,185 534,185 535,186 538,186 539,187 542,187 543,188 545,188 546,189 549,189 550,190 553,190 554,191 556,191 557,192 559,192 560,193 562,193 563,194 565,194 566,195 569,195 570,196 571,196 572,197 574,197 575,198 577,198 578,199 579,199 580,200 582,200 583,201 585,201 586,202 587,202 588,203 589,203 590,204 592,204 593,205 594,205 595,206 597,206 598,207 599,207 600,208 601,208 602,209 603,209 604,210 605,210 606,211 607,211 608,212 610,212 611,213 612,213 613,214 614,214 616,216 617,216 618,217 620,217 622,219 623,219 624,220 625,220 626,221 627,221 629,223 631,223 633,225 634,225 636,227 637,227 638,228 639,228 640,229 641,229 643,231 644,231 646,233 647,233 648,234 649,234 651,236 652,236 655,239 656,239 658,241 659,241 661,243 662,243 664,245 665,245 669,249 670,249 672,251 673,251 678,256 679,256 683,260 684,260 689,265 690,265 697,272 698,272 699,273 699,274 700,274 718,292 718,293 727,302 727,303 732,308 732,309 737,314 737,315 740,318 740,319 743,322 743,323 746,326 746,327 749,330 749,331 751,333 751,334 753,336 753,337 755,339 755,340 757,342 757,343 759,345 759,346 761,348 761,349 763,351 763,352 764,353 764,354 765,355 765,356 767,358 767,359 768,360 768,361 770,363 770,364 771,365 771,366 772,367 772,368 773,369 773,370 774,371 774,372 776,374 776,376 778,378 778,379 779,380 779,381 780,382 780,383 781,384 781,385 782,386 782,388 783,389 783,390 784,391 784,392 785,393 785,394 786,395 786,396 787,397 787,399 788,400 788,401 789,402 789,404 790,405 790,406 791,407 791,409 792,410 792,411 793,412 793,414 794,415 794,417 795,418 795,419 796,420 796,422 797,423 797,425 798,426 798,429 799,430 799,432 800,433 800,435 801,436 801,438 802,439 802,441 803,442 803,444 804,445 804,449 805,450 805,452 806,453 806,456 807,457 807,460 808,461 808,465 809,466 809,470 810,471 810,475 811,476 811,481 812,482 812,486 813,487 813,493 814,494 814,501 815,502 815,513 816,514 816,529 817,530 817,555 816,556 816,571 815,572 815,584 814,585 814,591 813,592 813,598 812,599 812,604 811,605 811,609 810,610 810,614 809,615 809,620 808,621 808,624 807,625 807,628 806,629 806,632 805,633 805,636 804,637 804,640 803,641 803,644 802,645 802,647 801,648 801,650 800,651 800,653 799,654 799,656 798,657 798,660 797,661 797,663 796,664 796,665 795,666 795,668 794,669 794,671 793,672 793,674 792,675 792,676 791,677 791,679 790,680 790,681 789,682 789,683 788,684 788,686 787,687 787,688 786,689 786,691 785,692 785,693 784,694 784,695 783,696 783,697 782,698 782,699 781,700 781,702 780,703 780,704 779,705 779,706 777,708 777,709 776,710 776,712 774,714 774,715 773,716 773,717 772,718 772,719 771,720 771,721 770,722 770,723 768,725 768,726 767,727 767,728 765,730 765,731 764,732 764,733 763,734 763,735 761,737 761,738 759,740 759,741 757,743 757,744 756,745 756,747 755,748 755,749 754,750 754,751 753,752 753,754 752,755 752,756 751,757 751,758 750,759 750,760 749,761 749,762 748,763 748,764 747,765 747,766 746,767 746,768 744,770 744,771 743,772 743,773 742,774 742,775 740,777 740,778 739,779 739,780 737,782 737,783 735,785 735,786 733,788 733,789 732,790 732,791 729,794 729,795 726,798 726,799 723,802 723,803 719,807 719,808 713,814 713,815 689,839 688,839 683,844 682,844 678,848 677,848 673,852 672,852 669,855 668,855 665,858 664,858 663,859 662,859 659,862 658,862 657,863 656,863 654,865 653,865 651,867 650,867 648,869 647,869 646,870 645,870 642,873 641,873 640,874 639,874 638,875 637,875 636,876 635,876 634,877 633,877 632,878 631,878 630,879 629,879 628,880 627,880 626,881 625,881 624,882 623,882 622,883 621,883 620,884 619,884 618,885 616,885 615,886 614,886 613,887 612,887 612,889 613,890 613,892 614,893 614,895 616,897 616,898 617,899 617,900 622,905 622,906 623,906 629,912 630,912 632,914 633,914 635,916 636,916 637,917 638,917 639,918 643,918 644,917 646,917 647,916 648,916 649,915 651,915 652,914 653,914 654,913 656,913 657,912 658,912 659,911 661,911 662,910 663,910 664,909 665,909 666,908 667,908 668,907 670,907 671,906 672,906 673,905 675,905 676,904 677,904 678,903 679,903 680,902 681,902 682,901 683,901 684,900 685,900 686,899 687,899 688,898 689,898 690,897 691,897 692,896 693,896 694,895 695,895 696,894 697,894 698,893 699,893 700,892 701,892 702,891 703,891 704,890 705,890 706,889 707,889 708,888 709,888 711,886 712,886 713,885 714,885 715,884 716,884 718,882 719,882 720,881 721,881 723,879 724,879 725,878 726,878 728,876 729,876 730,875 731,875 733,873 734,873 736,871 737,871 739,869 740,869 741,868 742,868 745,865 746,865 748,863 749,863 751,861 752,861 755,858 756,858 758,856 759,856 763,852 764,852 767,849 768,849 771,846 772,846 777,841 778,841 783,836 784,836 791,829 792,829 806,815 807,815 812,810 812,809 826,795 826,794 833,787 833,786 837,782 837,781 842,776 842,775 845,772 845,771 848,768 848,767 852,763 852,762 854,760 854,759 856,757 856,756 858,754 858,753 861,750 861,749 863,747 863,746 865,744 865,743 867,741 867,740 868,739 868,738 869,737 869,736 871,734 871,733 873,731 873,730 875,728 875,727 876,726 876,725 877,724 877,723 879,721 879,720 880,719 880,718 881,717 881,716 882,715 882,714 884,712 884,711 885,710 885,709 886,708 886,707 887,706 887,705 888,704 888,703 889,702 889,701 890,700 890,699 891,698 891,697 892,696 892,695 893,694 893,693 894,692 894,691 895,690 895,688 896,687 896,686 897,685 897,684 898,683 898,682 899,681 899,679 900,678 900,677 901,676 901,675 902,674 902,672 903,671 903,670 904,669 904,668 905,667 905,665 906,664 906,663 907,662 907,660 908,659 908,657 909,656 909,655 910,654 910,652 911,651 911,649 912,648 912,647 913,646 913,643 914,642 914,640 915,639 915,637 916,636 916,634 917,633 917,631 918,630 918,628 919,627 919,623 907,623 906,622 900,622 899,621 894,621 893,620 891,620 890,619 888,619 887,618 885,618 884,617 883,617 882,616 881,616 880,615 878,615 876,613 875,613 873,611 872,611 864,603 864,602 862,600 862,599 860,597 860,596 859,595 859,594 858,593 858,592 857,591 857,590 856,589 856,588 855,587 855,585 854,584 854,582 853,581 853,577 852,576 852,571 851,570 851,551 852,550 852,546 853,545 853,541 854,540 854,537 855,536 855,534 856,533 856,532 857,531 857,529 858,528 858,527 859,526 859,525 860,524 860,523 861,522 861,521 862,520 862,519 863,518 863,517 864,516 864,515 865,514 865,513 867,511 867,510 869,508 869,507 870,506 870,505 873,502 873,501 875,499 875,498 880,493 880,492 883,489 883,488 891,480 891,479 904,466 905,466 914,457 915,457 919,453 920,453 924,449 925,449 929,445 930,445 930,439 929,438 929,433 928,432 928,428 927,427 927,423 926,422 926,419 925,418 925,415 924,414 924,410 923,409 923,406 922,405 922,402 921,401 921,399 920,398 920,395 919,394 919,391 918,390 918,388 917,387 917,385 916,384 916,382 915,381 915,379 914,378 914,376 913,375 913,373 912,372 912,370 911,369 911,367 910,366 910,365 909,364 909,362 908,361 908,359 907,358 907,357 906,356 906,354 905,353 905,352 904,351 904,350 903,349 903,347 902,346 902,345 901,344 901,342 900,341 900,340 899,339 899,338 898,337 898,336 897,335 897,333 896,332 896,331 895,330 895,329 894,328 894,327 893,326 893,325 892,324 892,323 891,322 891,320 890,319 890,318 889,317 889,316 887,314 887,313 886,312 886,310 884,308 884,307 883,306 883,305 882,304 882,303 881,302 881,301 880,300 880,299 879,298 879,297 877,295 877,294 876,293 876,292 875,291 875,290 873,288 873,287 872,286 872,285 870,283 870,282 869,281 869,280 867,278 867,277 865,275 865,274 864,273 864,272 862,270 862,269 860,267 860,266 858,264 858,263 856,261 856,260 853,257 853,256 851,254 851,253 848,250 848,249 845,246 845,245 842,242 842,241 838,237 838,236 834,232 834,231 829,226 829,225 821,217 821,216 790,185 789,185 782,178 781,178 776,173 775,173 771,169 770,169 766,165 765,165 762,162 761,162 757,158 756,158 754,156 753,156 750,153 749,153 747,151 746,151 744,149 743,149 741,147 740,147 738,145 737,145 735,143 734,143 732,141 731,141 730,140 729,140 727,138 726,138 724,136 723,136 722,135 721,135 719,133 718,133 717,132 716,132 714,130 713,130 712,129 711,129 710,128 709,128 708,127 707,127 705,125 703,125 701,123 700,123 699,122 698,122 697,121 696,121 695,120 694,120 693,119 692,119 691,118 690,118 689,117 688,117 687,116 686,116 685,115 684,115 683,114 682,114 681,113 679,113 678,112 677,112 676,111 675,111 674,110 673,110 672,109 671,109 670,108 668,108 667,107 666,107 665,106 664,106 663,105 662,105 661,104 659,104 658,103 657,103 656,102 654,102 653,101 652,101 651,100 649,100 648,99 647,99 646,98 645,98 644,97 641,97 640,96 639,96 638,95 636,95 635,94 633,94 632,93 631,93 630,92 628,92 627,91 624,91 623,90 621,90 620,89 618,89 617,88 615,88 614,87 611,87 610,86 607,86 606,85 603,85 602,84 600,84 599,83 596,83 595,82 592,82 591,81 587,81 586,80 582,80 581,79 577,79 576,78 571,78 570,77 565,77 564,76 559,76 558,75 550,75 549,74 541,74 540,73 530,73 529,72 511,72 510,71 Z" fill="black" stroke="none" /><path d="M 0,0 0,1268 1535,1268 1535,327 1535,329 1534,330 1534,331 1532,333 1532,334 1528,338 1528,339 1519,348 1519,349 1506,362 1505,362 1505,363 1504,364 1503,364 1498,369 1497,369 1493,373 1492,373 1488,377 1487,377 1485,379 1484,379 1481,382 1480,382 1478,384 1477,384 1475,386 1474,386 1472,388 1471,388 1470,389 1469,389 1467,391 1466,391 1465,392 1464,392 1463,393 1462,393 1460,395 1458,395 1457,396 1456,396 1455,397 1454,397 1453,398 1452,398 1451,399 1450,399 1449,400 1448,400 1447,401 1446,401 1445,402 1444,402 1443,403 1441,403 1440,404 1439,404 1438,405 1437,405 1436,406 1434,406 1433,407 1431,407 1430,408 1429,408 1428,409 1426,409 1425,410 1424,410 1423,411 1420,411 1419,412 1418,412 1417,413 1415,413 1414,414 1412,414 1411,415 1409,415 1408,416 1406,416 1405,417 1402,417 1401,418 1398,418 1397,419 1395,419 1394,420 1391,420 1390,421 1386,421 1385,422 1381,422 1380,423 1375,423 1374,424 1369,424 1368,425 1363,425 1362,426 1354,426 1353,427 1343,427 1342,428 1313,428 1312,429 1311,428 1268,428 1267,427 1254,427 1253,426 1245,426 1244,425 1236,425 1235,424 1230,424 1229,423 1224,423 1223,422 1218,422 1217,421 1213,421 1212,420 1209,420 1208,419 1205,419 1204,418 1200,418 1199,417 1195,417 1194,416 1190,416 1189,415 1186,415 1185,414 1182,414 1181,413 1178,413 1177,412 1173,412 1172,411 1168,411 1167,410 1163,410 1162,409 1159,409 1158,408 1155,408 1154,407 1150,407 1149,406 1142,406 1141,405 1135,405 1134,404 1126,404 1125,403 1111,403 1110,402 1080,402 1079,403 1070,403 1069,404 1062,404 1061,405 1056,405 1055,406 1050,406 1049,407 1046,407 1045,408 1042,408 1041,409 1038,409 1037,410 1035,410 1034,411 1030,411 1029,412 1027,412 1026,413 1024,413 1023,414 1021,414 1020,415 1019,415 1018,416 1016,416 1015,417 1013,417 1012,418 1010,418 1009,419 1008,419 1007,420 1005,420 1004,421 1003,421 1002,422 1000,422 999,423 998,423 997,424 996,424 995,425 993,425 992,426 991,426 990,427 989,427 988,428 986,428 985,429 984,429 983,430 982,430 980,432 979,432 978,433 976,433 975,434 974,434 972,436 971,436 970,437 969,437 968,438 967,438 966,439 965,439 963,441 962,441 961,442 960,442 959,443 958,443 956,445 955,445 954,446 953,446 950,449 951,450 951,458 952,459 952,467 953,468 953,483 954,484 954,533 953,534 953,549 952,550 952,559 951,560 951,567 950,568 950,574 949,575 949,580 948,581 948,586 947,587 947,592 946,593 946,597 945,598 945,602 944,603 946,603 947,602 949,602 950,601 951,601 952,600 953,600 954,599 955,599 956,598 957,598 958,597 959,597 960,596 961,596 962,595 963,595 965,593 966,593 967,592 968,592 970,590 971,590 973,588 974,588 976,586 977,586 980,583 981,583 984,580 985,580 989,576 990,576 995,571 996,571 1006,561 1007,561 1007,560 1008,559 1009,559 1015,553 1015,552 1026,541 1026,540 1032,534 1032,533 1036,529 1036,528 1040,524 1040,523 1043,520 1043,519 1046,516 1046,515 1049,512 1049,511 1051,509 1051,508 1053,506 1053,505 1055,503 1055,502 1057,500 1057,499 1059,497 1059,496 1062,493 1062,492 1063,491 1063,490 1064,489 1064,488 1066,486 1066,485 1068,483 1068,482 1069,481 1069,480 1070,479 1070,478 1072,476 1072,475 1073,474 1073,473 1074,472 1074,471 1075,470 1075,469 1076,468 1076,467 1077,466 1077,465 1078,464 1078,463 1079,462 1079,460 1080,459 1080,458 1081,457 1081,456 1082,455 1082,454 1083,453 1083,451 1084,450 1084,448 1085,447 1085,446 1086,445 1086,443 1087,442 1087,440 1088,439 1088,437 1089,436 1089,435 1090,434 1090,433 1091,432 1094,432 1096,434 1096,435 1097,436 1097,437 1098,438 1098,440 1099,441 1099,449 1098,450 1098,458 1097,459 1097,465 1096,466 1096,469 1095,470 1095,473 1094,474 1094,476 1093,477 1093,480 1092,481 1092,482 1091,483 1091,486 1090,487 1090,488 1089,489 1089,491 1088,492 1088,493 1087,494 1087,496 1086,497 1086,498 1085,499 1085,500 1084,501 1084,502 1083,503 1083,504 1082,505 1082,506 1081,507 1081,508 1080,509 1080,511 1078,513 1078,514 1077,515 1077,516 1076,517 1076,518 1074,520 1074,521 1073,522 1073,523 1072,524 1072,525 1070,527 1070,528 1068,530 1068,531 1066,533 1066,534 1064,536 1064,537 1061,540 1061,541 1058,544 1058,545 1054,549 1054,550 1047,557 1047,558 1024,581 1023,581 1018,586 1017,586 1013,590 1012,590 1010,592 1009,592 1007,594 1006,594 1003,597 1002,597 1000,599 999,599 998,600 997,600 995,602 994,602 993,603 992,603 991,604 990,604 988,606 987,606 986,607 985,607 984,608 983,608 982,609 981,609 980,610 979,610 978,611 977,611 976,612 975,612 974,613 972,613 971,614 970,614 969,615 966,615 965,616 964,616 963,617 961,617 960,618 957,618 956,619 953,619 952,620 949,620 948,621 943,621 942,622 940,622 939,623 939,626 938,627 938,629 937,630 937,633 936,634 936,637 935,638 935,640 934,641 934,643 933,644 933,646 932,647 932,648 931,649 931,652 930,653 930,655 929,656 929,657 928,658 928,660 927,661 927,663 926,664 926,665 925,666 925,668 924,669 924,670 923,671 923,673 922,674 922,675 921,676 921,677 920,678 920,680 919,681 919,682 918,683 918,685 917,686 917,687 916,688 916,689 915,690 915,691 914,692 914,694 913,695 913,696 912,697 912,698 911,699 911,700 910,701 910,702 909,703 909,704 908,705 908,706 907,707 907,708 906,709 906,710 905,711 905,712 904,713 904,714 903,715 903,716 902,717 902,718 901,719 901,720 900,721 900,722 899,723 899,724 898,725 898,726 897,727 897,728 895,730 895,731 894,732 894,733 892,735 892,736 891,737 891,738 890,739 890,740 888,742 888,743 887,744 887,745 885,747 885,748 884,749 884,750 882,752 882,753 880,755 880,756 878,758 878,759 876,761 876,762 874,764 874,765 872,767 872,768 870,770 870,771 867,774 867,775 865,777 865,778 862,781 862,782 858,786 858,787 855,790 855,791 851,795 851,796 846,801 846,802 839,809 839,810 826,823 826,824 814,836 813,836 802,847 801,847 794,854 793,854 788,859 787,859 783,863 782,863 778,867 777,867 774,870 773,870 770,873 769,873 766,876 765,876 762,879 761,879 759,881 758,881 756,883 755,883 753,885 752,885 750,887 749,887 747,889 746,889 744,891 743,891 742,892 741,892 739,894 738,894 736,896 735,896 734,897 733,897 731,899 730,899 729,900 728,900 726,902 724,902 722,904 721,904 720,905 719,905 717,907 715,907 713,909 712,909 711,910 710,910 709,911 708,911 707,912 706,912 705,913 704,913 703,914 702,914 701,915 700,915 699,916 698,916 697,917 696,917 695,918 694,918 693,919 692,919 691,920 690,920 689,921 688,921 687,922 685,922 684,923 683,923 682,924 681,924 680,925 678,925 677,926 676,926 675,927 686,927 687,928 709,928 710,927 722,927 723,926 730,926 731,925 736,925 737,924 741,924 742,923 746,923 747,922 750,922 751,921 754,921 755,920 757,920 758,919 760,919 761,918 763,918 764,917 767,917 768,916 769,916 770,915 772,915 773,914 775,914 776,913 777,913 778,912 780,912 781,911 782,911 783,910 784,910 785,909 786,909 787,908 788,908 789,907 790,907 791,906 792,906 793,905 794,905 795,904 796,904 797,903 798,903 800,901 801,901 802,900 803,900 804,899 805,899 807,897 808,897 809,896 810,896 812,894 813,894 815,892 816,892 817,891 818,891 820,889 821,889 823,887 824,887 827,884 828,884 829,883 830,883 833,880 834,880 837,877 838,877 841,874 842,874 846,870 847,870 852,865 853,865 861,857 862,857 886,833 886,832 897,821 897,820 904,813 904,812 910,806 910,805 915,800 915,799 919,795 919,794 923,790 923,789 925,787 925,786 929,782 929,781 932,778 932,777 935,774 935,773 937,771 937,770 939,768 939,767 941,765 941,764 943,762 943,761 946,758 946,757 948,755 948,754 950,752 950,751 952,749 952,748 954,746 954,745 956,743 956,742 958,740 958,739 960,737 960,736 962,734 962,733 964,731 964,730 966,728 966,727 969,724 969,723 970,722 970,721 972,719 972,718 974,716 974,715 976,713 976,712 978,710 978,709 980,707 980,706 981,705 981,704 983,702 983,701 985,699 985,698 988,695 988,694 991,691 991,690 993,688 993,687 996,684 996,683 998,681 998,680 1001,677 1001,676 1004,673 1004,672 1007,669 1007,668 1010,665 1010,664 1013,661 1013,660 1017,656 1017,655 1021,651 1021,650 1024,647 1024,646 1029,641 1029,640 1035,634 1035,633 1040,628 1040,627 1047,620 1047,619 1054,612 1054,611 1063,602 1063,601 1075,589 1075,588 1076,587 1077,587 1077,586 1126,537 1127,537 1138,526 1139,526 1146,519 1147,519 1154,512 1155,512 1160,507 1161,507 1166,502 1167,502 1171,498 1172,498 1177,493 1178,493 1181,490 1182,490 1185,487 1186,487 1189,484 1190,484 1192,482 1193,482 1196,479 1197,479 1199,477 1200,477 1202,475 1203,475 1205,473 1206,473 1208,471 1209,471 1211,469 1212,469 1214,467 1215,467 1216,466 1217,466 1218,465 1219,465 1221,463 1222,463 1224,461 1225,461 1226,460 1227,460 1228,459 1229,459 1230,458 1231,458 1232,457 1233,457 1234,456 1235,456 1236,455 1237,455 1238,454 1240,454 1241,453 1243,453 1244,454 1245,454 1246,455 1246,456 1247,457 1247,463 1246,464 1246,465 1244,467 1243,467 1242,468 1241,468 1240,469 1239,469 1238,470 1237,470 1235,472 1234,472 1233,473 1232,473 1230,475 1229,475 1227,477 1226,477 1224,479 1223,479 1220,482 1219,482 1215,486 1214,486 1208,492 1207,492 1188,511 1188,512 1181,519 1181,520 1176,525 1176,526 1172,530 1172,531 1168,535 1168,536 1164,540 1164,541 1161,544 1161,545 1157,549 1157,550 1154,553 1154,554 1151,557 1151,558 1148,561 1148,562 1145,565 1145,566 1142,569 1142,570 1139,573 1139,574 1136,577 1136,578 1134,580 1134,581 1131,584 1131,585 1129,587 1129,588 1126,591 1126,592 1124,594 1124,595 1122,597 1122,598 1119,601 1119,602 1117,604 1117,605 1114,608 1114,609 1112,611 1112,612 1110,614 1110,615 1108,617 1108,618 1105,621 1105,622 1103,624 1103,625 1101,627 1101,628 1099,630 1099,631 1097,633 1097,634 1094,637 1094,638 1092,640 1092,641 1090,643 1090,644 1088,646 1088,647 1085,650 1085,651 1083,653 1083,654 1081,656 1081,657 1078,660 1078,661 1076,663 1076,664 1074,666 1074,667 1071,670 1071,671 1069,673 1069,674 1066,677 1066,678 1063,681 1063,682 1061,684 1061,685 1059,687 1059,688 1057,690 1057,691 1054,694 1054,695 1051,698 1051,699 1049,701 1049,702 1046,705 1046,706 1043,709 1043,710 1041,712 1041,713 1038,716 1038,717 1035,720 1035,721 1032,724 1032,725 1030,727 1030,728 1027,731 1027,732 1024,735 1024,736 1020,740 1020,741 1017,744 1017,745 1014,748 1014,749 1010,753 1010,754 1006,758 1006,759 1001,764 1001,765 997,769 997,770 991,776 991,777 985,783 985,784 977,792 977,793 965,805 965,806 928,843 927,843 918,852 917,852 911,858 910,858 906,862 905,862 901,866 900,866 897,869 896,869 893,872 892,872 889,875 888,875 885,878 884,878 882,880 881,880 879,882 878,882 875,885 874,885 873,886 872,886 870,888 869,888 867,890 866,890 864,892 863,892 862,893 861,893 859,895 858,895 857,896 856,896 854,898 853,898 852,899 851,899 849,901 848,901 847,902 846,902 845,903 844,903 843,904 842,904 840,906 839,906 838,907 837,907 836,908 835,908 834,909 833,909 832,910 831,910 830,911 829,911 828,912 827,912 826,913 825,913 824,914 823,914 822,915 821,915 820,916 818,916 817,917 816,917 815,918 814,918 813,919 811,919 810,920 809,920 808,921 807,921 806,922 804,922 803,923 801,923 800,924 798,924 797,925 795,925 794,926 793,926 792,927 790,927 789,928 786,928 785,929 782,929 781,930 779,930 778,931 775,931 774,932 771,932 770,933 767,933 766,934 763,934 762,935 757,935 756,936 751,936 750,937 745,937 744,938 738,938 737,939 728,939 727,940 705,940 704,941 694,941 693,940 674,940 673,939 666,939 665,938 660,938 659,937 655,937 654,936 651,936 650,937 648,937 647,938 645,938 644,939 643,939 642,940 639,940 638,941 636,941 635,942 633,942 632,943 630,943 629,944 627,944 626,945 624,945 623,946 619,946 618,947 616,947 615,948 612,948 611,949 608,949 607,950 605,950 604,951 600,951 599,952 595,952 594,953 590,953 589,954 586,954 585,955 580,955 579,956 575,956 574,957 568,957 567,958 561,958 560,959 553,959 552,960 544,960 543,961 533,961 532,962 514,962 513,963 482,963 481,962 464,962 463,961 452,961 451,960 443,960 442,959 435,959 434,958 429,958 428,957 421,957 420,956 416,956 415,955 411,955 410,954 406,954 405,953 401,953 400,952 397,952 396,951 392,951 391,950 388,950 387,949 384,949 383,948 380,948 379,947 377,947 376,946 373,946 372,945 369,945 368,944 366,944 365,943 363,943 362,942 360,942 359,941 357,941 356,940 354,940 353,939 351,939 350,938 348,938 347,937 345,937 344,936 343,936 342,935 340,935 339,934 337,934 336,933 335,933 334,932 332,932 331,931 330,931 329,930 328,930 327,929 325,929 324,928 322,928 321,927 320,927 319,926 318,926 317,925 316,925 315,924 313,924 312,923 311,923 310,922 309,922 308,921 307,921 306,920 305,920 304,919 303,919 302,918 300,918 299,917 298,917 296,915 295,915 294,914 293,914 292,913 290,913 288,911 287,911 286,910 285,910 284,909 283,909 281,907 279,907 277,905 276,905 275,904 274,904 272,902 271,902 270,901 269,901 268,900 267,900 265,898 264,898 262,896 261,896 260,895 259,895 258,894 257,894 255,892 254,892 252,890 251,890 249,888 248,888 245,885 244,885 243,884 242,884 239,881 238,881 236,879 235,879 232,876 231,876 229,874 228,874 225,871 224,871 220,867 219,867 215,863 214,863 209,858 208,858 202,852 201,852 192,843 191,843 190,842 190,841 189,841 183,835 182,835 182,836 183,837 183,879 181,881 88,881 87,880 87,847 88,846 150,846 150,800 148,798 148,797 143,792 143,791 139,787 139,786 135,782 135,781 132,778 132,777 129,774 129,773 127,771 127,770 125,768 125,767 123,765 123,764 120,761 120,760 118,758 118,757 116,755 116,754 114,752 114,751 113,750 113,749 111,747 111,746 109,744 109,743 108,742 108,741 107,740 107,739 105,737 105,736 104,735 104,734 102,732 102,731 101,730 101,729 100,728 100,727 99,726 99,725 97,723 97,722 96,721 96,720 95,719 95,718 94,717 94,716 93,715 93,714 92,713 92,712 91,711 91,710 90,709 90,708 89,707 89,706 88,705 88,704 87,703 87,702 86,701 86,700 85,699 85,698 84,697 84,696 83,695 83,693 82,692 82,691 81,690 81,689 80,688 80,686 79,685 79,684 78,683 78,682 77,681 77,680 76,679 76,677 75,676 75,675 74,674 74,672 73,671 73,669 72,668 72,667 71,666 71,664 70,663 70,662 69,661 69,658 68,657 68,656 67,655 67,653 66,652 66,650 65,649 65,647 64,646 64,644 63,643 63,640 62,639 62,637 61,636 61,633 60,632 60,630 59,629 59,626 58,625 58,623 57,622 57,618 56,617 56,614 55,613 55,610 54,609 54,605 53,604 53,601 52,600 52,595 51,594 51,590 50,589 50,584 49,583 49,578 48,577 48,571 47,570 47,563 46,562 46,552 45,551 45,539 44,538 44,480 45,479 45,467 46,466 46,455 47,454 47,448 48,447 48,441 49,440 49,434 50,433 50,429 51,428 51,423 52,422 52,417 53,416 53,413 54,412 54,408 55,407 55,404 56,403 56,400 57,399 57,396 58,395 58,392 59,391 59,388 60,387 60,385 61,384 61,382 62,381 62,378 63,377 63,375 64,374 64,372 65,371 65,369 66,368 66,366 67,365 67,363 68,362 68,360 69,359 69,357 70,356 70,354 71,353 71,352 72,351 72,349 73,348 73,347 74,346 74,344 75,343 75,341 76,340 76,339 77,338 77,337 78,336 78,334 79,333 79,332 80,331 80,329 81,328 81,327 82,326 82,325 83,324 83,323 84,322 84,321 85,320 85,318 86,317 86,316 87,315 87,314 88,313 88,312 89,311 89,310 90,309 90,308 91,307 91,306 92,305 92,304 93,303 93,302 94,301 94,300 95,299 95,298 96,297 96,296 97,295 97,294 98,293 98,292 99,291 99,290 101,288 101,287 102,286 102,285 103,284 103,283 104,282 104,281 106,279 92,279 91,278 91,246 92,245 127,245 129,243 129,242 132,239 132,238 135,235 135,234 138,231 138,230 142,226 142,225 146,221 146,220 151,215 151,214 157,208 157,207 166,198 166,197 189,174 190,174 199,165 200,165 205,160 206,160 211,155 212,155 216,151 217,151 221,147 222,147 225,144 226,144 229,141 230,141 232,139 233,139 236,136 237,136 239,134 240,134 242,132 243,132 246,129 247,129 248,128 249,128 251,126 252,126 254,124 255,124 256,123 257,123 259,121 260,121 262,119 263,119 264,118 265,118 267,116 268,116 269,115 270,115 272,113 273,113 274,112 275,112 276,111 277,111 278,110 279,110 281,108 282,108 283,107 284,107 285,106 286,106 287,105 288,105 289,104 290,104 291,103 292,103 293,102 294,102 295,101 296,101 297,100 298,100 299,99 300,99 301,98 302,98 303,97 304,97 305,96 306,96 307,95 308,95 309,94 311,94 312,93 313,93 314,92 315,92 316,91 317,91 318,90 320,90 321,89 322,89 323,88 324,88 325,87 326,87 327,86 329,86 330,85 331,85 332,84 334,84 335,83 336,83 337,82 339,82 340,81 341,81 342,80 344,80 345,79 347,79 348,78 349,78 350,77 352,77 353,76 355,76 356,75 358,75 359,74 361,74 362,73 364,73 365,72 367,72 368,71 370,71 371,70 374,70 375,69 377,69 378,68 381,68 382,67 385,67 386,66 388,66 389,65 392,65 393,64 396,64 397,63 402,63 403,62 406,62 407,61 411,61 412,60 416,60 417,59 421,59 422,58 427,58 428,57 435,57 436,56 442,56 443,55 451,55 452,54 462,54 463,53 480,53 481,52 514,52 515,53 532,53 533,54 543,54 544,55 552,55 553,56 559,56 560,57 567,57 568,58 573,58 574,59 578,59 579,60 583,60 584,61 588,61 589,62 593,62 594,63 598,63 599,64 602,64 603,65 606,65 607,66 610,66 611,67 613,67 614,68 617,68 618,69 621,69 622,70 624,70 625,71 627,71 628,72 630,72 631,73 633,73 634,74 637,74 638,75 639,75 640,76 642,76 643,77 645,77 646,78 648,78 649,79 651,79 652,80 653,80 654,81 656,81 657,82 658,82 659,83 661,83 662,84 663,84 664,85 666,85 667,86 668,86 669,87 670,87 671,88 672,88 673,89 675,89 676,90 677,90 678,91 680,91 681,92 682,92 683,93 684,93 685,94 686,94 687,95 688,95 689,96 691,96 692,97 693,97 694,98 695,98 696,99 697,99 698,100 699,100 700,101 701,101 702,102 703,102 704,103 705,103 706,104 707,104 708,105 709,105 711,107 713,107 714,108 715,108 717,110 718,110 719,111 720,111 721,112 722,112 723,113 724,113 726,115 727,115 728,116 729,116 731,118 732,118 733,119 734,119 735,120 736,120 738,122 739,122 741,124 742,124 743,125 744,125 746,127 747,127 749,129 750,129 752,131 753,131 755,133 756,133 758,135 759,135 761,137 762,137 765,140 766,140 768,142 769,142 772,145 773,145 776,148 777,148 780,151 781,151 784,154 785,154 789,158 790,158 795,163 796,163 802,169 803,169 813,179 814,179 815,180 815,181 816,181 826,191 826,192 837,203 837,204 843,210 843,211 848,216 848,217 852,221 852,222 856,226 856,227 859,230 859,231 862,234 862,235 865,238 865,239 867,241 867,242 870,245 870,246 872,248 872,249 874,251 874,252 876,254 876,255 878,257 878,258 880,260 880,261 881,262 881,263 883,265 883,266 885,268 885,269 886,270 886,271 888,273 888,274 889,275 889,276 890,277 890,278 892,280 892,281 893,282 893,283 894,284 894,285 896,287 896,288 897,289 897,290 898,291 898,292 899,293 899,294 900,295 900,296 901,297 901,298 902,299 902,300 903,301 903,302 904,303 904,304 905,305 905,306 906,307 906,308 907,309 907,310 908,311 908,312 909,313 909,314 910,315 910,316 911,317 911,318 912,319 912,320 913,321 913,323 914,324 914,325 915,326 915,328 916,329 916,330 917,331 917,332 918,333 918,334 919,335 919,336 920,337 920,339 921,340 921,341 922,342 922,344 923,345 923,346 924,347 924,348 925,349 925,351 926,352 926,354 927,355 927,357 928,358 928,359 929,360 929,362 930,363 930,364 931,365 931,368 932,369 932,371 933,372 933,374 934,375 934,377 935,378 935,380 936,381 936,384 937,385 937,387 938,388 938,390 939,391 939,394 940,395 940,398 941,399 941,401 942,402 942,406 943,407 943,410 944,411 944,415 945,416 945,419 946,420 946,424 947,425 947,431 948,432 949,431 950,431 951,430 952,430 954,428 955,428 956,427 957,427 959,425 960,425 962,423 963,423 964,422 965,422 966,421 967,421 968,420 969,420 970,419 971,419 973,417 974,417 975,416 976,416 977,415 978,415 979,414 980,414 981,413 982,413 983,412 984,412 985,411 986,411 987,410 989,410 990,409 991,409 992,408 993,408 994,407 995,407 996,406 997,406 998,405 1000,405 1001,404 1002,404 1003,403 1005,403 1006,402 1007,402 1008,401 1010,401 1011,400 1012,400 1013,399 1015,399 1016,398 1018,398 1019,397 1021,397 1022,396 1023,396 1024,395 1026,395 1027,394 1030,394 1031,393 1033,393 1034,392 1036,392 1037,391 1038,391 1039,390 1041,390 1042,389 1045,389 1046,388 1049,388 1050,387 1052,387 1053,386 1056,386 1057,385 1059,385 1060,384 1063,384 1064,383 1068,383 1069,382 1073,382 1074,381 1078,381 1079,380 1083,380 1084,379 1089,379 1090,378 1095,378 1096,377 1105,377 1106,376 1115,376 1116,375 1132,375 1133,374 1159,374 1160,375 1182,375 1183,376 1196,376 1197,377 1209,377 1210,378 1217,378 1218,379 1225,379 1226,380 1234,380 1235,381 1242,381 1243,382 1251,382 1252,383 1261,383 1262,384 1269,384 1270,385 1276,385 1277,386 1283,386 1284,387 1291,387 1292,388 1299,388 1300,389 1307,389 1308,390 1317,390 1318,391 1328,391 1329,392 1342,392 1343,393 1399,393 1400,392 1409,392 1410,391 1415,391 1416,390 1421,390 1422,389 1425,389 1426,388 1430,388 1431,387 1434,387 1435,386 1437,386 1438,385 1440,385 1441,384 1443,384 1444,383 1446,383 1447,382 1448,382 1449,381 1450,381 1451,380 1452,380 1453,379 1454,379 1455,378 1456,378 1457,377 1459,377 1460,376 1461,376 1463,374 1464,374 1465,373 1466,373 1467,372 1468,372 1469,371 1470,371 1472,369 1473,369 1475,367 1476,367 1477,366 1478,366 1481,363 1482,363 1484,361 1485,361 1489,357 1490,357 1517,330 1517,329 1521,325 1521,324 1527,318 1528,318 1529,317 1532,317 1535,320 1535,321 1535,0 Z" fill="black" stroke="none" /></svg>